<?xml version="1.0" encoding="utf-8"?>
<svg xmlns="http://www.w3.org/2000/svg" width="1024" height="1024" viewBox="0 0 1024 1024" xmlns:bx="https://boxy-svg.com"><defs><bx:export><bx:file format="svg"/></bx:export></defs><g style="" transform="matrix(1.327736, 0, 0, 1.327736, -167.829943, -167.801287)"><path fill="#0D0D0F" d="M497.424 202.281C668.576 194.177 813.857 326.429 821.822 497.588C829.787 668.747 697.417 813.92 526.252 821.746C355.283 829.564 210.312 697.378 202.356 526.416C194.4 355.453 326.468 210.375 497.424 202.281ZM524.748 814.351C691.684 807.389 821.372 666.423 814.423 499.487C807.473 332.551 666.518 202.852 499.581 209.788C332.626 216.726 202.91 357.7 209.86 524.654C216.81 691.608 357.794 821.314 524.748 814.351Z"/><path fill="#0D0D0F" d="M494.582 239.197C645.155 229.523 775.036 343.799 784.61 494.378C794.183 644.957 679.821 774.761 529.236 784.235C378.793 793.699 249.137 679.468 239.572 529.031C230.007 378.594 344.152 248.862 494.582 239.197ZM420.772 298.404C417.124 298.787 413.064 298.955 409.369 299.182C402.773 314.264 397.593 300.558 391.174 313.739C386.472 315.065 382.211 316.244 377.602 317.92C375.112 325.114 373.419 324.743 366.201 326.63C363.369 333.375 360.223 333.467 355.154 338.255C352.139 341.313 349.231 344.454 346.111 347.408C341.762 351.525 339.607 351.434 338.078 357.507C335.142 359.301 333.859 360.129 331.213 362.32C329.671 369.265 329.416 368.929 322.845 371.718L321.243 378.256L315.86 383.319C314.206 392.953 308.376 391.067 308.637 399.572C308.753 403.35 301.289 404.556 302.618 409.82C303.329 412.637 299.896 414.612 297.936 415.889C298.156 423.3 295.4 427.323 293.976 434.371C293.469 436.879 292.457 437.141 290.413 438.45C290.267 444.048 290.225 445.215 288.01 450.303C288.45 452.027 289.399 454.309 290.047 456.017C288.718 456.954 287.42 457.936 286.157 458.961C284.608 460.24 283.683 460.988 283.51 462.889C286.967 468.875 284.669 469.469 282.233 475.282C280.862 478.551 283.124 480.351 283.833 483.489C283.582 485.389 282.04 487.101 280.875 488.718L282.138 495.291L278.816 499.823C279.596 501.688 279.965 501.91 281.41 503.41C282.2 504.485 282.303 505.68 282.044 506.92C278.04 510.733 279.808 512.121 282.668 515.766L281.248 518.185C278.298 523.155 279.394 524.975 281.24 530.074L279.503 535.564C280.923 537.709 281.91 539.509 283.132 541.745C282.722 543.24 281.76 546.59 281.71 547.95C282.53 553.322 285.456 552.024 284.929 558.142C284.343 564.946 287.836 565.332 286.735 573.414L291.716 578.246L289.739 583.719C292.57 590.609 298.669 592.29 294.459 599.361L294.914 600.148C297.386 604.478 298.914 604.426 301.588 608.157C303.127 610.304 301.365 613.578 302.719 616.227C304.172 619.068 306.85 620.814 308.658 623.435C309.559 624.741 308.947 626.106 308.625 627.733C310.912 631.394 314.01 632.951 316.635 636.32C317.772 637.324 317.442 641.275 318.281 642.117C322.419 646.273 324.305 646.813 325.281 652.578C325.47 653.693 332.128 659.217 333.708 660.57L335.384 666.255C337.279 667.197 339.884 668.235 341.876 669.1C344.777 679.599 350.203 675.179 354.689 686.304C357.161 687.069 359.385 687.868 361.805 688.752L362.206 689.471C365.244 694.885 366.24 695.322 372.082 696.973C374.036 699.162 375.958 701.379 377.847 703.624L382.871 704.69C385.248 706.759 387.948 709.895 390.123 712.296C397.641 713.613 397.838 713.547 401.781 720.027C404.497 720.037 406.959 719.734 409.136 721.29C413.099 728.679 413.105 725.979 419.054 726.175C428.132 726.473 420.471 734.123 434.77 732.309C440.011 736.107 439.934 738.115 447.007 737.186C448.99 738.584 451.14 740.343 453.076 741.85C460.474 738.548 461.233 738.878 466.269 745.096C476.004 741.431 475.675 743.328 484.595 747.022C484.734 746.925 484.873 746.829 485.011 746.732C492.338 741.37 493.041 746.876 499.901 747.77C503.813 748.28 506.329 744.627 509.988 745.205C512.422 745.59 515.31 747.315 517.952 747.789C521.137 748.361 521.97 746.458 524.452 744.842C527.358 742.062 530.83 746.819 532.468 746.447C542.026 744.272 541.51 742.831 551.364 744.733C556.51 739.527 559.023 738.27 564.811 743.364C567.07 741.125 569.092 739.153 571.476 737.047C576.344 737.078 578.8 737.386 583.55 736.227C585.972 733.787 586.491 733.208 589.489 731.425C597.546 731.577 598.191 731.744 603.721 725.604C607.672 724.565 610.978 724.529 615.012 724.473C618.594 715.519 620.628 718.18 628.913 715.986C631.757 715.233 631.649 713.146 632.927 710.87C634.702 707.706 638.832 708.763 641.777 707.825C644.796 706.707 645.559 704.273 646.745 701.791C647.926 699.32 653.56 698.084 656.141 697.324C656.573 696.359 657.011 695.396 657.456 694.437C659.984 688.865 662.256 689.241 667.961 688.123C671.015 680.006 672.536 682.08 678.411 676.552C678.678 676.301 679.836 672.063 680.035 671.321C681.908 670.598 684.014 670.017 685.95 669.426C690.347 662.598 686.91 662.374 696.145 656.851C696.823 654.197 697.448 651.841 698.264 649.218C700.907 646.48 702.786 645.69 706.12 643.994C706.403 640.691 706.629 638.631 707.25 635.376C710.33 632.711 712.105 631.836 715.187 628.595C715.053 626.843 714.644 624.682 714.361 622.917C719.456 613.938 722.991 616.136 722.964 603.498C724.539 602.244 726.359 601.061 728.03 599.912C729.036 597.985 729.835 595.429 730.573 593.341C728.777 587.718 728.782 587.279 733.443 583.858C734.548 579.857 735.087 578.576 736.88 574.81C736.127 573.337 735.397 571.816 734.664 570.33C736.004 568.617 737.744 566.949 739.28 565.382C740.101 559.549 740.482 558.111 738.87 552.447C739.566 551.306 741.805 547.701 741.965 546.666C743.565 536.339 739.01 537.383 745.3 528.473C743.363 526.096 740.502 523.505 742.645 520.495C745.772 516.104 744.655 512.397 742.317 508.057C741.533 506.601 744.563 501.228 745.316 499.745C743.884 498.535 742.515 497.155 741.158 495.851C741.637 492.671 742.35 489.164 742.935 485.98L739.991 478.751C742.695 470.424 738.824 471.212 737.839 463.235C737.74 462.434 739.109 458.13 739.452 457.031C737.973 454.719 735.449 452.285 733.515 450.247C737.061 440.135 733.427 444.078 729.168 435.963C728.139 434.003 729.983 432.056 730.397 429.562C727.775 421.262 723.05 428.876 725.143 415.678C718.461 412.851 718.281 412.448 719.713 405.598C715.537 398.322 710.742 400.809 713.079 391.594C705.849 387.47 706.287 388.135 704.53 380.214C703.916 377.446 699.659 375.797 697.153 374.615C697.115 371.844 697.436 369.8 695.719 367.679C687.603 364.409 690.547 363.49 687.707 357.733C687.013 356.326 681.848 355.491 680.323 352.516C680.265 345.882 678.004 346.678 671.938 344.815C671.778 341.999 672.073 340.448 670.157 338.624C666.449 338.657 663.097 337.495 662.119 333.118C661.262 329.279 657.545 329.423 654.473 328.829C652.728 321.899 652.16 322.236 645.577 323.155C643.576 316.912 643.05 316.029 636.377 315.114C632.52 314.586 630.292 311.738 631.815 307.935L632.966 307.623C635.28 308.128 636.156 308.902 638.151 310.207C643.783 303.52 650.606 296.506 656.625 290.064C653.804 288.137 651.056 286.414 648.156 284.607C644.696 288.986 640.083 293.179 636.44 297.559C634.264 300.175 628.788 308.463 626.026 308.973C622.861 308.044 622.319 306.349 620.688 303.514L613.65 303.47C608.279 298.243 610.22 297.064 601.902 298.292C595.728 290.622 596.276 295.019 587.678 291.762C587.328 291.629 584.782 288.55 584.306 287.97L578.19 289.377C572.068 281.359 571.984 286.398 563.477 284.686C561.783 284.345 559.452 281.434 557.091 281.236C554.35 281.006 551.249 282.47 548.608 281.57C547.511 281.196 545.239 279.334 544.226 278.764C541.627 277.3 537.815 279.56 535.294 280.207C532.857 280.832 529.446 277.844 527.484 276.306C520.351 278.094 516.003 281.762 511.373 276.72C508.062 274.139 502.682 278.376 499.815 278.965C493.76 280.21 492.987 272.325 487.278 279.566C483.853 283.909 480.234 278.707 476.976 278.116C472.881 277.373 470.482 283.445 466.738 283.839C463.212 283.63 462.422 279.241 458.287 281.623C452.873 284.742 451.665 291.896 445.292 284.48C443.36 285.999 439.02 290.87 437.426 291.361C427.292 294.483 429.166 289.956 420.772 298.404ZM579.213 768.88C582.804 767.72 593.717 764.594 596.352 762.644C610.314 752.319 619.438 738.307 633.294 727.272C627.37 735.353 621.744 741.438 614.876 748.764C612.937 750.833 606.771 757.227 605.513 759.334L605.442 759.845C610.512 758.712 625.678 751.242 630.55 748.759C673.94 726.987 710.615 693.859 736.674 652.9C745.947 638.266 752.079 626.191 758.741 610.443C752.177 617.94 744.02 625.374 736.747 632.245C728.122 640.395 719.705 648.4 710.32 655.695C723.096 636.473 746.532 623.844 759.853 604.785C761.992 601.725 766.744 590.435 766.12 587.009C752.786 598.517 740.034 611.279 726.787 622.685C713.261 634.333 710.472 641.789 700.854 655.414C684.625 678.403 661.253 698.111 638.082 713.752C632.142 717.704 624.831 720.179 619.242 724.759C612.816 730.016 606.998 737.215 601.463 743.478C593.95 751.861 586.533 760.329 579.213 768.88ZM424.625 261.625C423.635 262.985 422.478 264.32 421.395 265.619C413.147 274.784 402.587 284.214 394.026 293.365C391.894 295.645 378.994 309.559 377.516 310.581C375.842 310.585 376.622 310.801 375.154 309.732C375.521 308.391 376.084 307.551 377.121 306.571C391.692 292.809 404.895 277.511 419.296 263.594C414.49 264.53 402.198 270.314 397.58 272.464C355.044 292.565 318.704 323.747 292.377 362.736C288.692 368.2 279.836 381.864 278.419 387.686C286.614 380.097 312.397 351.927 320.601 349.975L320.79 350.491C318.787 353.37 315.402 356.256 312.726 358.58C301.142 368.639 290.28 380.545 278.151 389.903C271.996 396.608 265.405 412.078 262.624 420.885C282.235 403.849 300.181 385.058 320.638 369.146C323.1 367.231 326.182 365.39 327.41 362.494C328.836 359.135 332.353 356.725 334.534 353.818C347.474 338.047 363.234 324.575 380.305 313.472C387.205 309.001 397.433 304.85 404.286 300.547C405.537 299.762 414.314 290.154 416.318 288.12C423.504 280.961 430.645 273.758 437.741 266.51C441.068 263.095 446.077 258.141 448.878 254.419C443.054 255.214 430.873 259.605 424.625 261.625ZM261.419 424.595C259.629 429.586 254.001 444.41 254.437 448.797L277.65 426.724C283.434 421.261 292.232 412.964 298.778 408.504C302.098 399.387 311.199 385.112 316.239 376.344C316.215 376.057 316.191 375.77 316.168 375.483C299.681 390.51 278.478 411.417 261.419 424.595ZM250.147 474.125C259.875 464.284 276.556 447.902 287.09 439.33C288.22 434.679 294.98 418.507 294.552 416.184L294.108 415.913C280.388 425.479 265.999 441.689 253.765 453.435C252 455.129 248.611 472.173 249.835 474.234L250.147 474.125ZM718.44 626.317C723.65 622.453 729.488 616.912 734.371 612.498L757.399 591.603C760.392 588.865 765.187 583.982 768.177 581.707C769.148 578.139 772.602 566.385 771.639 563.376C760.903 572.603 750.915 583.23 740.293 592.384C730.371 600.935 727.173 606.666 722.085 618.689C721.252 620.658 718.148 624.345 718.44 626.317ZM418.064 293.445C420.287 292.615 434.882 288.102 436.203 287.195C448.825 278.522 462.8 262.176 473.594 250.829C473.672 250.657 473.75 250.484 473.827 250.312C472.531 249.626 473.077 249.935 471.108 250.213C467.889 250.596 457.964 251.685 456.04 253.11C449.61 257.871 417.046 289.489 415.701 293.741C417.18 293.916 416.613 293.946 418.064 293.445ZM733.604 595.573C746.797 583.535 759.72 571.099 772.934 559.168C773.743 556.606 775.836 544.977 774.825 543.024L774.751 542.976C763.542 553.305 750.235 563.809 739.971 575.202C738.479 576.858 732.45 594.435 733.604 595.573ZM311.934 638.736C310.709 636.702 306.898 630.172 305.43 628.864C298.733 635.471 291.707 642.768 284.933 649.189C286.743 651.957 289.492 656.432 291.452 658.9C298.266 652.767 305.57 645.382 311.934 638.736ZM292.72 661.095C295.072 664.297 297.3 667.366 299.848 670.428C306.932 664.34 313.19 657.062 320.204 650.997C318.093 647.694 315.951 644.233 313.694 641.046C307.44 646.995 298.987 655.758 292.72 661.095ZM702.545 372.262C708.747 365.146 716.531 357.569 722.309 350.516C720.066 347.541 717.684 344.218 715.162 341.52C708.692 348.308 701.896 356.038 695.427 362.603C698.388 365.519 700.552 367.805 701.84 371.9L702.545 372.262ZM742.382 464.211C742.845 466.084 744.916 475.811 745.504 476.494C754.053 468.881 762.56 459.951 770.575 451.7C769.986 449.289 768.55 442.436 767.224 440.859C759.838 447.018 748.136 460.186 742.382 464.211ZM767.038 437.835C765.661 433.797 764.341 429.894 762.771 425.918C755.329 434.003 747.703 441.915 739.898 449.649C740.647 452.715 741.495 456.85 742.773 459.62C743.692 459.786 743.331 459.826 743.856 459.722C752.26 452.325 759.029 445.246 767.038 437.835ZM340.825 713.288C344.198 716.142 347.186 718.605 350.711 721.256C356.495 714.815 363.542 707.754 368.86 701.254C368.076 700.647 359.395 693.77 359.501 693.823L340.825 713.288ZM271.33 618.891C275.74 614.234 288.401 602.396 290.57 598.064C289.722 594.933 289.701 595.412 291.482 592.523L291.862 591.914L291.855 591.021C290.626 590.681 290.948 590.757 289.662 590.717C287.71 588.834 288.709 587.224 286.874 585.399C279.371 593.26 272.804 599.955 264.792 607.363C265.83 609.886 268.778 618.079 270.631 619.093L271.33 618.891ZM535.979 775.49C540.007 769.977 558.867 750.76 559.779 746.972L559.214 746.222L558.081 746.185C553.923 746.819 549.691 747.564 545.496 747.741C542.023 751.333 523.956 771.777 522.438 775.616C523.566 776.173 523.13 776.077 524.375 776.01C528.5 775.969 531.893 775.98 535.979 775.49ZM723.844 406.503C729.853 401.052 738.745 390.206 744.051 383.67C742.773 381.07 740.315 376.465 738.306 374.387C732.187 382.091 725.138 388.879 718.534 396.128C719.872 399.066 721.83 403.708 723.41 406.341L723.844 406.503ZM745.961 498.385C747.586 503.237 747.522 506.463 748.554 511.127C757.719 501.903 766.354 492.36 775.852 483.432C775.584 480.564 775.131 472.962 773.548 470.993C768.087 476.187 750.046 493.04 745.961 498.385ZM278.452 486.642C278.645 482.933 279.312 474.029 278.704 470.894C268.885 478.468 256.869 491.952 247.101 500.608C246.982 503.573 246.328 516.499 247.047 518.573C253.302 512.098 259.623 506.054 266.059 499.789C269.463 496.475 275.97 490.425 278.452 486.642ZM464.444 746.726C462.468 746.412 460.374 746.118 458.424 745.708C451.904 752.671 445.464 759.709 439.107 766.822C442.214 767.691 450.839 770.919 453.107 768.891C457.798 762.597 465.612 754.151 470.885 748.254L464.444 746.726ZM519.959 274.01C525.883 274.061 529.579 274.224 535.421 275.272C543.101 265.919 550.776 259.255 558.603 250.677C554.355 249.99 548.302 248.931 544.106 248.897C535.874 257.181 527.679 265.233 519.959 274.01ZM301.631 672.834C304.037 675.824 306.801 679.445 309.408 682.184C314.743 675.206 322.715 667.959 328.778 661.456C327.202 659.888 322.069 653.938 321.196 653.417C315.509 658.324 306.63 667.127 301.631 672.834ZM278.894 552.453C270.562 561.164 263.366 568.316 254.609 576.614C255.868 580.571 257.552 586.467 259.095 590.164C265.729 582.693 275.301 572.344 282.849 565.821C282.145 563.866 279.454 553.044 278.894 552.453ZM329.796 703.624C332.96 706.407 336.092 709.226 339.191 712.081C344.28 705.606 352.191 698.669 357.869 692.475C356.53 691.309 349.523 684.931 348.618 684.356C342.73 691.305 336.486 697.457 329.796 703.624ZM264.26 605.39C270.096 599.257 280.543 587.203 286.509 582.108C285.949 580.168 283.332 570.064 282.801 569.04C275.512 576.211 266.504 585.039 259.744 592.718C261.047 597.042 262.374 601.274 264.26 605.39ZM310.348 683.516L318.572 692.346C325.182 685.702 331.27 679.062 337.734 672.345C335.179 670.034 330.484 663.879 330.503 663.895C325.018 669.338 316.094 678.715 310.348 683.516ZM412.418 757.352C414.844 758.318 421.207 761.173 423.393 760.837C428.652 754.627 436.544 747.025 442.415 741.013C439.055 739.7 434.826 737.918 431.465 736.854C425.051 743.626 418.702 750.459 412.418 757.352ZM399.328 751.395C402.772 752.97 406.416 754.72 409.878 756.199C415.844 750.758 423.602 741.883 429.272 735.751C425.292 734.286 421.256 731.622 418.902 730.819C412.54 737.072 405.396 744.76 399.328 751.395ZM472.754 748.502C471.282 752.715 458.525 765.815 454.746 769.911C456.858 771.252 463.792 772.477 466.663 773.091C473.193 765.461 480.198 757.966 486.817 750.307C482.254 749.86 477.572 748.961 472.754 748.502ZM538.863 274.984C540.262 275.184 551.997 277.453 551.785 277.469C559.288 270.183 567.574 260.977 574.872 254.303C570.385 253.181 565.582 252.488 561.467 251.432C556.061 257.271 544.415 270.199 538.863 274.984ZM710.297 383.273C716.282 375.182 723.611 368.627 729.87 360.727C728.604 358.893 725.114 353.544 723.508 352.436C718.299 358.275 709.421 368.597 703.952 373.894C705.877 376.322 709.186 382.585 710.297 383.273ZM248.928 477.62C248.277 482.825 247.283 490.856 247.561 495.958L247.986 496.486L268.449 476.282C271.372 473.399 276.732 467.821 279.849 465.516C282.24 458.851 284.089 452.003 285.375 445.04L284.993 444.473L264.894 463.558C260.157 468.068 254.195 474.049 248.928 477.62ZM569.399 281.587C572.132 282.331 578.168 284.381 580.498 283.518C587.352 276.96 593.916 268.447 600.472 262.211C597.41 261.214 591.864 259.597 589.068 258.393C584.217 265.355 575.194 274.984 569.399 281.587ZM403.308 724.172C401.382 722.709 396.807 718.974 394.712 718.391C388.207 724.095 380.579 732.172 374.356 738.416C377.918 740.23 381.122 742.209 384.591 744.063C385.244 743.757 401.043 726.391 403.308 724.172ZM363.537 730.674C366.613 732.783 369.647 734.894 372.804 736.882C379.207 730.437 385.53 723.915 391.774 717.316C387.82 715.809 384.496 714.089 382.754 710.065C377.735 715.6 367.639 725.429 363.537 730.674ZM277.418 633.318C283.61 626.411 291.945 618.261 298.575 611.689C296.026 608.787 293.221 601.646 292.033 600.882C286.409 606.568 276.821 617.174 270.914 621.615C272.467 624.919 274.833 630.473 276.913 633.215L277.418 633.318ZM486.146 775.395C490.936 775.516 495.722 775.76 500.5 776.125C505.157 770.636 519.076 755.432 522.17 750.358C516.472 751.158 514.338 750.766 508.673 750.47C500.883 758.52 493.37 766.833 486.146 775.395ZM387.244 745.019C390.101 746.589 394.819 749.376 397.711 750.338C401.138 744.569 411.728 736.284 415.927 729.949C412.059 728.873 408.81 727.062 405.242 725.251C399.387 731.785 393.331 738.752 387.244 745.019ZM298.842 615.867C291.472 622.08 285.053 629.76 277.711 635.824C279.753 639.432 282.303 643.662 284.178 647.286C288.474 642.371 300.063 630.307 305.037 626.308C304.018 624.435 300.084 616.677 298.842 615.867ZM504.601 751.061C500.052 750.937 494.48 750.334 490.271 750.389C484.314 756.652 474.888 766.492 469.834 773.463C472.681 773.896 480.656 775.255 483.103 774.687C490.092 766.792 497.251 758.593 504.601 751.061ZM573.906 769.721C578.418 765.281 608.629 733.329 609.994 729.79C609.074 729.226 609.539 729.387 608.631 729.226C604.034 732.264 594.315 735.042 591.491 737.384C582.07 745.197 565.896 762.084 559.471 772.028C560.244 772.523 559.842 772.45 560.653 772.346C565.061 771.421 569.479 770.546 573.906 769.721ZM686.554 350.165C691.508 345.141 701.189 335.387 705.23 329.643C703.512 327.852 699.763 323.414 697.641 322.86C691.183 329.427 684.839 336.106 678.613 342.893C681.5 345.385 683.851 347.485 686.554 350.165ZM762.094 423.626C761.101 420.372 759.582 415.335 757.804 412.414C750.2 420.689 743.163 427.494 734.969 435.24C735.774 437.127 739.184 445.694 739.891 446.752C747.053 439.26 754.764 430.849 762.094 423.626ZM686.173 311.86C684.372 310.275 680.74 306.993 678.73 305.878C671.856 312.228 665.891 319.752 659.53 325.658C662.94 328.222 664.919 329.85 668.02 332.762C673.407 325.214 680.906 318.913 686.173 311.86ZM614.838 267.861C609.011 273.558 600.725 282.902 595.833 289.542C597.297 290.115 603.878 292.888 604.829 292.635C610.661 285.796 617.878 277.972 624.182 271.452C621.171 270.202 617.955 268.755 614.838 267.861ZM615.795 298.036C621.679 292.031 630.115 283.519 635.239 276.829L625.969 272.443C619.612 279.734 612.886 286.637 606.978 294.287C608.645 295.095 614.286 297.948 615.795 298.036ZM504.046 247.014C497.511 252.607 480.438 269.497 474.88 276.306L490.196 274.604C495.174 274.449 496.459 272.533 499.976 268.739C506.834 261.339 513.526 254.197 520.674 247.063C515.089 246.96 509.633 246.814 504.046 247.014ZM666.863 296.248L657.96 290.903C653.856 297.121 645.261 305.674 640.153 312.185C641.525 312.854 647.563 316.569 648.337 315.987C652.649 311.863 663.561 301.01 666.863 296.248ZM453.054 280.975C460.506 278.31 463.28 278.74 470.326 277.225C476.466 270.419 482.836 263.823 489.423 257.449C492.414 254.556 497.561 250.106 500.066 247.361L493.317 247.711C489.399 247.953 484.924 248.337 481.044 248.295C473.537 254.764 466.148 262.712 459.193 269.864C455.758 273.396 449.227 279.918 446.477 283.62C448.089 282.974 451.65 281.678 453.054 280.975ZM612.236 266.714C609.047 265.41 605.379 263.804 602.124 262.834C597.967 269.277 588.476 278.884 582.919 284.312C585.241 285.508 590.435 288.574 592.787 288.16C597.493 283.257 608.263 272.021 612.236 266.714ZM565.375 280.703C569.798 278.422 583.202 262.408 586.503 258.041C583.406 257.025 580.303 256.03 577.193 255.054C569.643 262.681 562.262 269.966 555.225 278.092C558.547 278.938 562.094 279.776 565.375 280.703ZM696.227 320.418C694.443 318.917 689.909 314.752 688.034 314.218C681.634 320.809 675.534 327.595 669.234 334.108C670.921 335.594 675.396 340.175 676.907 340.364L677.216 340.196C683.768 333.582 689.967 327.323 696.227 320.418ZM693.904 360.346C700.468 353.693 707.519 346.524 713.021 338.983C711.518 336.988 708.82 333.406 706.881 331.862C701.953 337.367 693.091 347.704 687.723 352.486C688.979 353.855 693.643 360.294 693.904 360.346ZM668.895 297.861C663.517 303.347 654.732 312.606 650.096 318.572C651.469 319.767 656.276 323.772 657.822 323.904C664.095 317.22 670.434 310.598 676.838 304.039C674.059 301.707 671.921 299.869 668.895 297.861ZM619.019 299.288C620.895 300.454 625.105 303.29 627.033 303.738L627.416 303.61C633.407 297.4 641.027 290.039 646.374 283.553C643.043 281.401 640.817 280.013 637.296 278.239C631.73 285.349 624.357 292.077 619.019 299.288ZM524.144 247.412C515.337 256.532 506.22 265.554 497.572 274.791C503.373 274.366 509.097 273.839 514.914 273.945C519.346 271.907 535.767 252.978 539.646 248.495C534.151 247.84 529.695 247.408 524.144 247.412ZM737.294 372.613C735.306 369.032 733.963 366.833 731.622 363.485C726.002 369.703 717.166 380.019 711.288 385.43C714.187 388.52 715.073 392.206 716.877 393.71C724.128 386.812 730.464 379.091 737.294 372.613ZM445.318 741.348C439.443 747.588 430.684 756.032 425.468 762.231C429.13 763.499 433.13 764.991 436.865 765.879C440.58 761.599 453.095 748.525 454.534 744.64L454.303 744.309C450.451 745.164 448.309 743.683 445.318 741.348ZM526.322 750.013C521.473 755.378 507.705 770.249 504.38 775.583C505.507 776.458 504.962 776.078 506.875 776.117C510.789 776.114 515.18 776.211 519.05 775.97C522.99 769.896 529.95 762.619 534.548 756.766C536.283 754.557 539.087 751.819 540.412 749.46C539.232 748.636 539.801 748.993 537.776 749.158C533.341 749.846 530.853 750.21 526.322 750.013ZM371.087 703.264C364.622 709.408 358.642 716.074 352.59 722.633C354.986 724.427 359.011 727.617 361.46 728.983C367.574 722.684 374.281 715.998 379.576 709.024C378.115 707.979 372.224 703.634 371.087 703.264ZM328.453 702.039L347.273 682.511C345.838 681.097 340.764 675.885 339.482 674.902C333.605 680.682 325.864 688.657 320.817 695.068C323.379 697.539 325.67 699.81 328.453 702.039ZM554.648 773.363C557.219 770.245 583.826 739.947 583.809 739.992L583.731 739.673C579.502 740.717 570.356 742.846 566.495 744.315C560.3 751.523 544.895 767.063 540.675 774.668L540.722 775.275C545.254 774.644 550.132 773.866 554.648 773.363ZM745.67 479.666C745.98 483.138 746.286 488.466 747.073 491.702L747.879 492.118C757.356 483.85 764.715 475.413 773.716 466.866C772.984 464.054 772.202 456.618 770.782 455.328C763.53 462.676 753.475 473.417 745.67 479.666ZM254.08 574.036C262.248 566.228 272.311 556.937 279.098 547.94C278.785 546.111 277.144 535.204 276.456 534.449C268.18 543.215 259.575 551.663 250.658 559.775C251.657 564.256 252.729 569.728 254.08 574.036ZM751.805 399.563C750.502 401.201 749.68 402.05 748.179 403.518C742.155 409.998 735.988 416.181 730.047 422.774C732.733 426.659 733.083 428.261 734.408 432.709C741.5 426.265 750.226 416.055 757.154 410.656C755.842 407.288 754.112 402.266 751.805 399.563ZM741.678 569.556C753.379 559.093 763.783 549.206 775.829 538.858C776.423 534.604 777.372 528.604 776.862 524.352L776.543 523.986C769.004 529.312 748.947 547.972 743.747 554.811C743.445 557.595 741.206 567.599 741.361 569.24L741.678 569.556ZM777.551 519.69C777.589 517.089 778.065 506.963 776.896 505.44C766.617 514.549 756.564 523.909 746.746 533.513C746.516 536.239 745.372 545.841 745.909 547.726L746.202 548.021C756.955 538.763 766.228 528.194 777.551 519.69ZM248.013 542.714C248.543 545.99 249.481 553.175 250.327 555.963C253.651 554.514 272.637 533.561 276.662 529.484C276.703 526.707 277.546 515.82 275.948 514.339C265.683 524.214 257.523 532.085 248.013 542.714ZM724.201 409.664C725.64 413.279 727.143 416.868 728.708 420.43C734.754 414.489 740.467 408.335 746.46 402.341C748.102 400.409 748.835 399.639 750.748 397.98C751.473 395.226 746.528 388.563 744.886 386.154C739.18 393.887 730.605 402.378 724.201 409.664ZM775.702 487.404C766.472 496.136 757.369 505.001 748.396 513.997C747.987 517.669 747.109 524.485 747.674 527.994L748.358 528.326C756.803 520.604 768.782 508.188 777.098 501.509C777.036 498.762 777.128 489.068 775.702 487.404ZM246.943 522.64C247.092 527.757 247.242 533.749 248.086 538.759C257.748 529.052 267.376 519.782 276.815 509.832C276.867 507.911 276.897 505.991 276.902 504.07C277.042 501.812 277.408 499.109 277.655 496.822L277.387 492.771L277.013 492.475C274.781 494.187 268.239 500.957 265.911 503.337C259.749 509.636 252.839 516.171 246.943 522.64Z"/><path fill="#0D0D0F" d="M507.435 368.701C554.202 365.506 590.109 382.759 612.085 425.025C615.972 432.501 619.607 440.069 621.374 448.374C611.363 454.243 591.98 460.752 580.687 464.475C575.448 458.786 572.286 451.061 567.737 444.611C548.768 417.716 511.229 413.765 485.366 433.128C466.887 446.963 456.282 468.698 453.224 491.342C447.747 531.902 460.581 591.082 509.792 595.972C540.294 599.401 565.143 580.991 575.593 552.818C577.645 547.286 577.737 540.241 581.213 535.49C582.187 534.198 589.048 535.475 590.739 535.724C603.263 538.56 617.577 538.659 628.926 544.096C631.672 546.829 629.495 557.472 629.018 560.2C619.118 616.819 578.819 649.265 522.76 653.143C445.767 658.807 397.034 603.297 391.539 530.047C385.721 452.505 419.86 374.761 507.435 368.701ZM414.654 537.996C410.406 496.101 418.025 461.623 444.586 427.796C475.963 387.835 541.082 378.615 580.818 411.65C584.283 414.555 587.544 417.696 590.577 421.05C593.212 420.305 596.05 419.556 598.651 418.756C575.754 383.301 548.939 375.226 507.97 376.239C475.985 378.701 451.342 389.602 430.424 414.383C404.313 445.455 395.43 488.018 398.629 527.733C400.848 555.276 407.707 580.886 424.727 603.125C427.32 606.513 434.169 616.113 438.17 616.373C442.056 613.845 436.983 603.466 435.294 600.218C424.503 579.476 417.704 561.405 414.654 537.996ZM466.339 580.39C468.433 597.715 475.304 604.726 490.344 612.96C523.688 626.75 557.764 620.933 581.521 592.78C586.665 586.6 591.268 579.99 595.282 573.023C596.584 570.72 600.22 561.948 602.547 561.259C607.829 559.695 615.868 562.112 621.259 562.94C621.566 558.512 622.001 553.678 622.165 549.277C609.446 547.16 598.373 545.02 585.751 542.374C580.269 565.698 572.701 581.172 551.263 594.527C536.313 603.724 518.317 606.593 501.248 602.5C485.839 598.764 476.709 591.874 466.339 580.39Z"/></g></svg>