<svg id="Layer_1" data-name="Layer 1" xmlns="http://www.w3.org/2000/svg" xmlns:xlink="http://www.w3.org/1999/xlink" viewBox="0 0 966.44 880.88"><defs><style>.cls-1{fill:#ebd8f0;}.cls-2{fill:#111418;}.cls-3{fill:#fff;}.cls-4{fill:url(#linear-gradient);}.cls-5{fill:url(#linear-gradient-2);}</style><linearGradient id="linear-gradient" x1="84.53" y1="96.02" x2="844.64" y2="838.39" gradientTransform="matrix(1, 0, 0, -1, 0, 883.66)" gradientUnits="userSpaceOnUse"><stop offset="0" stop-color="#1c1c20"/><stop offset="1" stop-color="#35383f"/></linearGradient><linearGradient id="linear-gradient-2" x1="73.01" y1="379.09" x2="311.63" y2="444.73" gradientTransform="matrix(1, 0, 0, -1, 0, 883.66)" gradientUnits="userSpaceOnUse"><stop offset="0" stop-color="#f4e1fa"/><stop offset="1" stop-color="#fff"/></linearGradient></defs><path class="cls-1" d="M0,101.41c16.59-1.8,33.4-2.45,50.06-3.53,9.86-.64,20.13-2,30-1.92a5.23,5.23,0,0,1,2.94.88c-14.66,2.94-30,4.46-44.81,6.54-5.67.8-11.85,1.11-17.37,2.58a11.46,11.46,0,0,0-5.55,2.74c-.33,2.64.94,6.28,1.55,8.87a488.24,488.24,0,0,1,8.87,51.55q7.42,62.58,20,124.33c12.62,61.68,28.8,122.67,43.17,184Q120.73,611.82,144.1,748c4.78,28.59,9.88,57.21,14.12,85.88,1.63,11.06,4.38,22.24,4.12,33.46-2.52-1.32-5.4-2.26-8.05-3.32-4.47-17.53-4.46-36.22-7.75-54-2.7-14.58-5.09-29.27-8-43.79-4.88-24.16-10.75-48.06-16.08-72.11-2.08-9.41-3.75-18.9-5.85-28.3L87.26,532.12Q51,375.07,21.34,216.65c-1.76-9.51-4.14-18.91-6-28.4-2.39-12.34-4-24.86-6.24-37.24C6.12,134.46,2.56,118,0,101.41Z"/><path class="cls-2" d="M812.51,346.77c18-21.48,92.48-130.68,113.75-132.23,10.48-.77,24.22,7.19,31.71,14,3.87,3.54,8.43,8.81,8.47,14.31.1,12.51-14.14,29.75-20.82,40.41,2.71,3.61,6.09,7.4,5.43,12.25-2.08,15.07-61.62,91.66-75,108.31-8,10-16.48,19.55-24.69,29.32-4.75,5.64-14.28,18.4-19.87,22.35a5.78,5.78,0,0,1-4.45.94,5.45,5.45,0,0,1-3.66-3.18,6.67,6.67,0,0,1,.21-5.41c1.54-3.26,17.26-21,21-25.66q31.43-38.81,61.45-78.72c9.61-12.76,22.44-28,29.39-42.37.89-1.84,1.77-3.89,1.21-5.88-3.24,2-37.12,48.36-42.88,56q-29.31,38.61-59.75,76.33l-18.93,24c-3.76,4.7-8.16,9.22-11.33,14.36l-.53.52a5.42,5.42,0,0,1-1.43,1.12c-4.53,3-7.21,10.21-9.72,14.82L660.58,647.71Q626,692.79,589.29,736.15l-14.77,17.51c-2.46,3-4.78,6.21-7.44,9a6.91,6.91,0,0,1-3.37,2.14c-3.31.81-6.91-2.79-9.31-4.6-12.38,10.51-23.35,22.72-35.61,33.38-3.22,2.8-6.86,2.85-9.08,4.73-3.12,2.65-5,7.5-8.62,9.5a5.23,5.23,0,0,1-4.36.1,2.75,2.75,0,0,1-1.7-2.51c-.35-5.1,6.5-11.36,9.67-14.83l-2.46-7.1c1.92-4.53,5.37-8.79,8.1-12.87,7-10.54,15.09-21.21,21-32.36a56.85,56.85,0,0,1-7.2-7.52c8.88-13.7,19.83-26.6,29.75-39.58l47.4-62.33c6-7.77,11.6-15.86,17.58-23.67q23.46-30.2,46.4-60.78c16.94-22.88,33.69-46.32,51-68.92l56.46-74.07c9.85-13,20.36-25.65,29.34-39.25,1.93-1.29,1.67-13.09,2.43-16.05,1.29-5,1.22-10.25,1.84-15.37.74-6.09,1.94-12.19,2.84-18.27,3.61-24.32,7.62-48.15,13-72.15.91-4.09.8-9.17,2.16-13,.09-.27.42-1.19.75-1.38a4.61,4.61,0,0,1-.1,3,18.3,18.3,0,0,0-.93,3.41c-.54,3.88-.65,16.29,1.68,19.21.13.15.27.29.4.43l1-.49c-1.49,9.62-3.64,19.19-5.32,28.8q-3.66,21.68-6.76,43.45C814.16,329.45,811.72,341.63,812.51,346.77Z"/><path class="cls-3" d="M693,521.74c7.81,1.68,16.82,8.52,22.62,13.77,3.66,3.32,9.43,8.88,9.68,14.07-3-.19-5.62-4.1-7.62-6.22a83.2,83.2,0,0,0-15.54-12.7c-2.58-1.71-5.75-3.42-8-5.53C693,524.05,693,523.25,693,521.74Z"/><path class="cls-3" d="M675.37,546.12a12.79,12.79,0,0,1,3.15.22c7.84,1.86,20.22,12.68,24.58,19.44,1.45,2.23,2.41,4.09,1.85,6.76-5.48-2.87-10.41-10.7-15.5-14.87-3.25-2.67-12.61-6.42-14.43-9.37C674.61,547.62,675.15,546.82,675.37,546.12Z"/><path class="cls-4" d="M267,.44c9.07-1,18.24-.08,27.31.5,27,1.71,53.79,5.5,80.59,9,23,3,46,5.08,69.06,7.47,13.14,1.36,26.21,3.35,39.38,4.39,9.88.78,19.77.25,29.65,1,11.43.88,22.75,3.23,34.22,3.44,14.08.26,28.07-1.68,42.12-1.89,22.25-.33,44.5.2,66.74.43,12.35.13,24.71-.12,37.06-.07q42.74.14,85.41,2.48c7.66.42,22.43.61,29.25,2.09a7.29,7.29,0,0,1,3.19,1.47c2.48,2.14,3.06,5.91,3.16,9,.09,3.29-.08,6.57.14,9.86,6.62.78,43,4.7,45.74,8.22,6.68,8.7-27.63,170.74-32.88,193.51l-1,.49c-.13-.14-.27-.28-.4-.43-2.33-2.92-2.22-15.33-1.68-19.21a18.3,18.3,0,0,1,.93-3.41,4.61,4.61,0,0,0,.1-3c-.33.19-.66,1.11-.75,1.38-1.36,3.87-1.25,8.95-2.16,13-5.33,24-9.34,47.83-13,72.15-.9,6.08-2.1,12.18-2.84,18.27-.62,5.12-.55,10.36-1.84,15.37-.76,3-.5,14.76-2.43,16.05,0-6.17,1.12-12.5,1.91-18.62q2.07-16.37,4.58-32.68c1.93-12.84,3.68-25.75,6.06-38.52,9.2-49.48,21.31-98.38,29.82-148q3.51-19.56,5.94-39.28c.86-6.62,2-13.44,2-20.11-6.07-2.06-12.75-2.87-19-4-17.29-3-34.5-5.09-52-6.9-20.24-2.1-40.41-4.63-60.73-6-13.61-.9-27.27-1.21-40.89-1.87-20-1-40.06-2.42-60.08-3.56-22.3-1.26-44.74-2.24-67-4.38l-36.86-3.9c-9.37-.92-18.77-1.49-28.12-2.6-13.8-1.62-27.5-3.92-41.32-5.43-18.82-2.05-37.72-3.12-56.54-5.45-28.52-3.52-56.83-8.1-85.48-10.61-10.25-.9-20.7-1.91-31-1.85q-17.16,277.92-48,554.63-5.82,50.9-12.91,101.61c-1.31,9.28-3,18.5-4.29,27.78q-5,37.17-8.94,74.45c-1.41,12.85-3,25.68-3.95,38.57q16.51-2.07,33.14-2.58t33.23.54c11.38.81,22.68,2.43,34,3.49L350,811.66q48.14,4,96.14,9.39T542,833.14q47.82,6.72,95.45,14.77t95,17.46c3.63-16.25,6.19-32.84,9.13-49.23q7.93-42.9,15.17-85.94c4.74-27.52,9.86-55,14.36-82.6q11.49-71.26,19.26-143c.42-4,3.08-19.25,1.75-22.21,2.51-4.61,5.19-11.81,9.72-14.82a5.42,5.42,0,0,0,1.43-1.12l.53-.52q-9.37,93.29-17.71,186.67c-3.24,34.18-8.11,68.07-10,102.4-1.34,25,.05,49.89,1.79,74.79.41,5.87,3,21.85,1,26.26-4.4,3.47-29.79,1.61-36.43,1.48-1.06,6.51-1.5,17.51-5.89,22.61-4.8,2.59-22.83-2.07-28.81-3.25-35-6.92-70.48-9.52-105.91-13.62-11.07-1.28-22-3.14-33-4.59-7.16-.94-14.39-1.43-21.57-2.18-14.08-1.47-28.12-3.11-42.26-3.86-11.26-.61-22.51-.15-33.77-.17-9.19,0-18.39-.47-27.57-.84q-23.87-.84-47.7-2c-13.17-.68-26.56-1.87-39.75-1.4-25.18.92-49.87,5.16-74.9,7.17-10.91.88-21.74.71-32.66,1.13a304.31,304.31,0,0,0-34.09,3.26c-9.42,1.43-18.91,3-28.22,5-6.12,1.31-12.23,3.08-18.37,4.22a6.73,6.73,0,0,1-3.45,0,5.39,5.39,0,0,1-2.2-1.66c.26-11.22-2.49-22.4-4.12-33.46C154,805.17,148.88,776.55,144.1,748Q120.73,611.82,88.9,477.42c-14.37-61.3-30.55-122.29-43.17-184q-12.61-61.75-20-124.33a488.24,488.24,0,0,0-8.87-51.55c-.61-2.59-1.88-6.23-1.55-8.87A11.46,11.46,0,0,1,20.81,106c5.52-1.47,11.7-1.78,17.37-2.58C53,101.3,68.33,99.78,83,96.84c11.92-1,23.79-2.82,35.68-4.07l99.08-10.86q.66-12.3,1-24.63c.14-7.44-.11-15.12.79-22.5.23-1.93.49-3.94,1.71-5.49,5.4-.55,11.35.77,16.78,1.17,8.87.66,17.8.94,26.68,1.4C265.17,21.55,265.31,10.61,267,.44Z"/><path class="cls-3" d="M659.6,33.54c10.94-.93,22.68-.06,33.68.05,37.26.36,75.43,1.51,112.4,6.25l.09,7.63-5.56-.58c-10.71-1.68-21.62-2.15-32.41-3.26-14.16-1.45-28.3-3.2-42.5-4.29-11.74-.9-23.49-1.15-35.25-1.82-12.45-.72-24.91-1.93-37.35-2.92l-.18-.54-.49,0-.11.34-.22-.3Z"/><path class="cls-3" d="M776.32,669c-.38,11.06-2.06,22.14-3.26,33.14-1.91,17.57-3.64,35.28-4.6,52.92-1.67,30.78.79,61.33,2.19,92-7-.17-13.93-.79-20.89-1.45l-4.33-.57c1.94-18.94,5.62-38,9-56.72l10.73-60.56q3.42-20.1,7.2-40.13C773.51,681.57,774.28,674.91,776.32,669Z"/><path class="cls-3" d="M118.28,246c16-2.91,32.17-4.89,48.22-7.46q23.31-3.83,46.31-9.2c0,13.07-.88,26.29-1.52,39.34-.36,7.19-.13,15-1.38,22.09l1.79.6a4.18,4.18,0,0,1,2.11-.49,4.25,4.25,0,0,0,2.1-.43l.28-1.26.95-.28c-.09,1.93-.18,3.86-.35,5.78-.36,6.43-.61,12.93-1.27,19.34q-5.62,76.56-12.39,153-2,22.54-4.32,45.08c-.61,6-.84,12.2-1.78,18.17-3.1-1.82-2.14-3.4-3.22-6.54a4.28,4.28,0,0,0-2.8-1.46c-6.38,3.81-15.68,6.12-22.82,7.84-3.43-11.48-5.08-24-7.47-35.74-8.86-43.65-14.95-87.83-21.52-131.86-3.53-23.66-7.3-47.51-11.75-71C124.57,276.4,120.94,261.25,118.28,246Z"/><path class="cls-2" d="M211.7,291.41a4.18,4.18,0,0,1,2.11-.49,4.25,4.25,0,0,0,2.1-.43l.28-1.26.95-.28c-.09,1.93-.18,3.86-.35,5.78-.36,6.43-.61,12.93-1.27,19.34q-5.62,76.56-12.39,153-2,22.54-4.32,45.08c-.61,6-.84,12.2-1.78,18.17-3.1-1.82-2.14-3.4-3.22-6.54a4.28,4.28,0,0,0-2.8-1.46c-1.21-5.28,2.89-36.62,3.78-44.12a13.35,13.35,0,0,1-3.91-2.62,3.47,3.47,0,0,1-1-3c.5-2.3,3.73-4.21,5.44-5.52,2.06-11.27,2.45-23.22,3.2-34.65-4,.91-10.51,3.93-14.48,2.61-1.48-.49-1.94-1.36-2.61-2.63a3.35,3.35,0,0,1,.26-2.21c2.33-3.85,13.19-5.18,17.41-6.41,1.41-11.34,2.47-23,2.81-34.45-3.45,1-27.8,7.21-29.51,6.94a4.11,4.11,0,0,1-2.74-2.18,4.26,4.26,0,0,1-.44-3.52c5.33-5.4,25.26-7.81,33.41-9.38,1.85-11.67,2.24-23.92,3.22-35.71-5.81,1.18-35.59,8.87-38,8.64-1.63-.15-3.15-1.6-4-2.87a2.9,2.9,0,0,1,.64-2.76c3-3.94,35-10.36,41.47-11.32.49-4.83.77-9.63,1-14.47-6.18,1.35-36.88,9.76-39.85,8.68a5.39,5.39,0,0,1-3-3.32,3.54,3.54,0,0,1,.57-2c3.17-4.81,35.39-10.5,43.18-12,.78-4.56.89-9.38,1.22-14-7.5.12-24.58,5.05-32.62,7.36-3.35,1-7,2.38-10.45,2.87a2.94,2.94,0,0,1-1.79-.34,8.42,8.42,0,0,1-2.59-3.82,3.84,3.84,0,0,1,.6-3.23c3-2.2,42.38-11.51,47.67-12.08Z"/><path class="cls-3" d="M226.32,38.1c7.52,1,15,1.73,22.52,2.19,4.94.3,10.09.31,15,1-.38,14.89-2,29.84-3.05,44.7l-6.85,92.18q-14.85,200.61-38,400.43c-7.58,64.19-18.32,127.94-25.2,192.24Q189,785.92,187.1,801c-.44,3.55-1.77,8.42-1.41,11.87a5.39,5.39,0,0,0,1.33,3.26,3.17,3.17,0,0,0,2.59,1.19c4.1.23,8.87-2,13-2.46a395.23,395.23,0,0,1,45.78-1.52c18.81.5,37.53,3.87,56.29,5.41q46.77,3.48,93.42,8.09c25.7,2.63,51.23,6,76.85,9.18l33.57,4.12c5.37.69,11.8.88,16.83,2.72q-50.88.87-101.73-1.34-39.35-2.21-78.66-5c-14.54-1.15-29.06-2.67-43.61-3.71-20.39-1.47-40.81-2.14-61.22-3.28s-40.87-2.75-61.32-3.8c0-28.43,2.3-57,3.83-85.43q3.17-59.78,7.19-119.51L197,530.36c.94-6,1.17-12.15,1.78-18.17q2.33-22.53,4.32-45.08,6.76-76.49,12.39-153c.66-6.41.91-12.91,1.27-19.34.17-1.92.26-3.85.35-5.78C223.33,205.55,223.34,121.65,226.32,38.1Z"/><path class="cls-5" d="M213.63,91.51c1.24-.24,2.18-.54,3.36.07,1.72,4.41-2.75,114.49-3.33,128.64q-29,6.87-58.47,11.38c-13.6,2.14-27.37,3.59-40.91,6-1.33.24-5.27.68-6,1.75a11.87,11.87,0,0,0,.17,4.48c1.19,6.68,3.32,13.31,4.79,20,3.14,14.22,5.92,28.76,8.4,43.12C131,360.68,138,414.79,147.26,468.58q4,23.81,9,47.43c1.38,6.48,2.43,13.63,4.55,19.89.38,1.12,1.3,3.64,2.52,4.05,4,1.35,21.79-5.32,26.29-7.32-1.23,11.87-1.81,23.9-2.82,35.8-1.46,17.21-3.38,34.39-4.6,51.63-2.87,40.69-4.55,81.43-6.94,122.15-.81,13.65-7.54,87.16-3.24,92.44,1,1.21,4.81.93,6.33,1,16.72.6,33.36,2.22,50.05,3.4,15.59,1.1,31.23,1.64,46.84,2.53,10.5.59,21,1.6,31.47,2.05-5.84,1.46-12.1,1.68-18.09,2.2-15.38,1.35-30.66,1.81-46.08,2.45-24.87.13-48.62,6.46-73,10.33-2.09-8.62-2.77-18-4.07-26.79-2.1-14.16-4.56-28.31-6.85-42.45q-7.22-42.32-15-84.53c-3.6-19.77-6.87-39.47-11-59.16q-22.87-110.22-49-219.73l-17-71c-4.36-18.08-8.84-36.23-12.34-54.5-5.76-30.08-12-60.21-16.32-90.53-4.58-31.76-7.12-63.79-14.66-95.07,5.75-1.29,11.78-1.91,17.61-2.78q16-2.42,32-4.55c13.83-1.8,27.7-3.76,41.58-5.11,13.43-1.3,26.91-2,40.33-3.43Q184.39,95.69,213.63,91.51Z"/><path class="cls-3" d="M273.38,8.43c10.29-.06,20.74,1,31,1.85,28.65,2.51,57,7.09,85.48,10.61,18.82,2.33,37.72,3.4,56.54,5.45,13.82,1.51,27.52,3.81,41.32,5.43,9.35,1.11,18.75,1.68,28.12,2.6l36.86,3.9c22.23,2.14,44.67,3.12,67,4.38,20,1.14,40.05,2.59,60.08,3.56,13.62.66,27.28,1,40.89,1.87,20.32,1.34,40.49,3.87,60.73,6,17.46,1.81,34.67,3.86,52,6.9,6.3,1.1,13,1.91,19,4,0,6.67-1.14,13.49-2,20.11q-2.43,19.71-5.94,39.28c-8.51,49.61-20.62,98.51-29.82,148-2.38,12.77-4.13,25.68-6.06,38.52Q806,327.13,804,343.5c-.79,6.12-1.88,12.45-1.91,18.62-9,13.6-19.49,26.27-29.34,39.25l-56.46,74.07c-17.26,22.6-34,46-51,68.92q-22.93,30.58-46.4,60.78c-6,7.81-11.58,15.9-17.58,23.67l-47.4,62.33c-9.92,13-20.87,25.88-29.75,39.58a56.85,56.85,0,0,0,7.2,7.52c-6,11.15-14,21.82-21,32.36-2.73,4.08-6.18,8.34-8.1,12.87l2.46,7.1c-3.17,3.47-10,9.73-9.67,14.83a2.75,2.75,0,0,0,1.7,2.51,5.23,5.23,0,0,0,4.36-.1c3.61-2,5.5-6.85,8.62-9.5,2.22-1.88,5.86-1.93,9.08-4.73,12.26-10.66,23.23-22.87,35.61-33.38,2.4,1.81,6,5.41,9.31,4.6a6.91,6.91,0,0,0,3.37-2.14c2.66-2.79,5-6,7.44-9l14.77-17.51q36.69-43.38,71.29-88.44L792.12,482.36c1.33,3-1.33,18.18-1.75,22.21q-7.77,71.76-19.26,143c-4.5,27.57-9.62,55.08-14.36,82.6q-7.25,43-15.17,85.94c-2.94,16.39-5.5,33-9.13,49.23q-47.38-9.4-95-17.46T542,833.14q-47.83-6.72-95.83-12.09T350,811.66l-54.38-4.74c-11.36-1.06-22.66-2.68-34-3.49q-16.61-1-33.23-.54t-33.14,2.58c.94-12.89,2.54-25.72,3.95-38.57q3.93-37.29,8.94-74.45c1.28-9.28,3-18.5,4.29-27.78Q219.5,614,225.33,563.06,256.23,286.34,273.38,8.43Z"/><path class="cls-2" d="M277.92,588.67c7.47,1.26,10.15,14,18,16.38,6.08,1.85,14.15-3,18.66-6.9,2.51-2.16,5-5.12,7.87-6.71a6.81,6.81,0,0,1,5.76-.69c.64.66,1.07.85,1.24,1.8.38,2.17-.74,3.54-1.91,5.23-6.48,6.5-13.79,13.24-23,15.52a18.48,18.48,0,0,1-14.65-2.17c-4.61-3-13.39-11.91-14-17.45C275.77,591.85,276.92,590.07,277.92,588.67Z"/><path class="cls-2" d="M294.78,427a132.87,132.87,0,0,1,15.06.87c7.79.83,70.32,9,72.77,11.19a4.13,4.13,0,0,1,1.16,3.28c0,2-1.09,3.3-2.5,4.64-23.34-3.19-46.35-7.86-69.82-10.43-4.18-.46-16.13-.27-18.77-2.89a5.68,5.68,0,0,1-.25-3.11A4.91,4.91,0,0,1,294.78,427Z"/><path class="cls-2" d="M322.34,123A192.57,192.57,0,0,1,356.21,124c14.41,1.87,28.63,5.35,43,7.45,7.88,1.14,16.41.51,24.09,2.09a5.07,5.07,0,0,1,3.81,2.24,4.61,4.61,0,0,1-.18,3c-.67,1.87-1.61,2.38-3.29,3.16-24.56-.11-48-7.33-72.24-9.93a167.38,167.38,0,0,0-17.62-1c-4.09,0-8.79.86-12.79-.18a4.52,4.52,0,0,1-3.12-2.44,5.49,5.49,0,0,1,.71-3.57C319.44,123.58,321,123.33,322.34,123Z"/><path class="cls-2" d="M488.91,140.22c6.39-.08,13,1.12,19.38,1.79,8.46.88,17,1.57,25.4,2.72,11.13,1.52,22.24,3.51,33.45,4.43,7.31.59,29.9-.67,34.77,1.25.53.62,1,1,1.13,1.78.3,1.93-.44,3.38-1.46,4.95l-.77.12c-7.93,1.24-17.55,1.21-25.57.83-16-.75-31.69-3.65-47.58-5.45-7-.79-33.27-2.25-37.84-4.32a2.9,2.9,0,0,1-1.59-1.56C487.26,144.65,488.29,142.3,488.91,140.22Z"/><path class="cls-2" d="M441.91,446.35c40.2,4.35,80.23,11.19,120.31,16.61,4.21.56,35.58,4,37.16,4.64a5.45,5.45,0,0,1,1.15.89,5.51,5.51,0,0,1,.74,2.71,6,6,0,0,1-2,4.79c-12.44-.84-155.15-19.82-158.41-22.16a3.71,3.71,0,0,1-1.42-2.72C439.35,449.07,440.51,447.66,441.91,446.35Z"/><path class="cls-2" d="M287.22,528.28c10.52-.31,22,1.87,32.54,3,40.64,4.5,80.63,12.39,121,19.07,4.84.8,27.54,3.66,30.2,5a3.44,3.44,0,0,1,2,2.57c.25,1.94-.74,4.35-1.71,6-9.94-.36-24.17-3.65-34.52-5.38-28-4.69-55.85-10.06-83.95-14.36q-17-2.65-34-4.42c-7.79-.86-25.27-1.71-31.64-4.11-1-1.09-1.48-1.47-1.62-3S286.35,529.51,287.22,528.28Z"/><path class="cls-2" d="M310.61,252.38c9.75-.92,20.48,1,30.21,2,42,4.27,82.9,13.81,124.66,19.56q29.92,4,59.9,7.57c8.33,1,18.7,1.12,26.69,3.22a4.24,4.24,0,0,1,1.26,2.08c.54,2.43-.46,4.38-1.7,6.4-4.41.58-23.8-2.85-30.1-3.65-28.72-3.67-57.4-7.08-86-11.76-20.42-3.34-40.68-7.84-61.11-11-16-2.48-32.45-4.27-48.63-5.49-3.57-.27-7.18,0-10.75-.27-1.66-.14-3.87-.78-4.77-2.3C309.19,256.88,310.14,254.25,310.61,252.38Z"/><path class="cls-2" d="M290.5,482.37c13.71-.3,27.8,1.88,41.37,3.48q50.22,6.33,100.09,14.93,61.35,9.45,123,16.55c2.1.25,5.94.25,7.18,2.26a4.54,4.54,0,0,1,.57,3.28,5.62,5.62,0,0,1-2.46,4.06c-65.93-7.06-131.25-18.17-196.77-28.11q-23.77-3.66-47.68-6.2c-7.27-.73-14.91-.64-22.09-1.7-1.55-.23-3.79-.63-5-1.79a2.79,2.79,0,0,1-.87-1.91C287.88,485.22,289.21,483.75,290.5,482.37Z"/><path class="cls-2" d="M315.9,202.87c12.67-.76,26.56,1.85,39,3.85,19.06,3,38,6.68,56.95,10.15q39.61,7,79.42,12.84c47,7,94.75,9.61,142.06,14.07,6.15.58,74.23,8.17,75.71,8.94a8.12,8.12,0,0,1,1.24,1.35,5,5,0,0,1,.32,3.54c-.39,2-1.15,2.67-2.76,3.75-6.24.19-18.12-2.36-25-3.25Q656,254.77,629,251.94c-24.14-2.54-48.39-4.1-72.56-6.26-25.08-2.25-50.37-5.14-75.31-8.62-20.39-2.84-41-6.19-61.24-10-22.63-4.27-45.21-9.07-68-12.52Q341.14,213,330.27,212c-4.49-.35-9.15-.28-13.6-.94a4,4,0,0,1-2.22-.83,3.35,3.35,0,0,1-1.16-2.88C313.33,205.39,314.51,204.08,315.9,202.87Z"/></svg>