<?xml version="1.0" encoding="utf-8" ?>
<svg xmlns="http://www.w3.org/2000/svg" xmlns:xlink="http://www.w3.org/1999/xlink" width="1024" height="1024">
	<path fill="#131518" d="M190.262 65.7381C207.952 65.3504 225.848 66.4511 243.552 66.7702L366.566 69.3805L761.133 78.6064C780.064 79.0107 927.586 80.8361 931.78 83.1081C932.851 85.3799 932.999 87.9893 932.968 90.4729C932.909 95.1761 932.042 100.055 931.53 104.749C930.571 113.557 929.673 122.521 929.444 131.375C938.687 130.057 977.065 124.29 983.163 127.354C984.711 130.125 984.316 135.813 984.211 138.968C983.468 161.417 980.696 184.119 978.828 206.514L969.54 317.158C967.749 336.478 964.7 355.833 964.362 375.244Q966.488 376.945 968.563 378.708C979.773 388.314 987.397 400.886 988.468 415.796C989.61 431.686 986.193 447.617 983.577 463.21L976.806 504.604L947.401 684.785Q937.831 744.298 927.38 803.663C924.079 823.3 922.408 843.535 917.122 862.759C915.715 867.874 913.749 873.102 910.782 877.529C908.695 880.642 906.127 883.71 904.628 887.169C902.913 891.124 902.784 896.092 901.835 900.299C898.986 912.928 891.597 922.367 883.269 931.894C894.217 933.401 905.998 932.625 917.086 932.894L988.401 934.599C995.871 934.767 1010.52 934.218 1017.37 935.377C1019.32 935.708 1020.28 936.237 1021.39 937.874C1021.34 939.317 1021.28 939.387 1020.4 940.542C1012.9 942.784 1000.36 940.815 992.328 940.674Q964.456 940.339 936.589 939.675Q916.527 939.442 896.47 938.949C887.972 938.771 878.946 938.037 870.516 939.2C866.464 939.758 862.425 941.546 858.55 942.827C850.913 945.353 842.904 946.343 834.903 946.796C825.146 947.347 815.156 946.736 805.377 946.659L747.209 946.055L576 943.716L316.467 940.539Q249.506 940.078 182.559 938.634C171.547 938.416 160.516 938.665 149.51 938.305C141.532 938.044 133.182 937.66 125.436 935.675C118.778 933.968 112.865 931.291 105.938 930.686C98.185 930.008 90.1718 930.472 82.3821 930.394C68.3645 930.255 54.3436 929.52 40.3223 929.299C30.821 929.149 21.1929 929.759 11.7241 929.007C9.97476 928.868 7.47558 928.665 5.99389 927.669C4.90353 926.936 4.83217 926.661 4.55527 925.469C4.78233 924.712 4.95356 924.105 5.58201 923.566C6.97008 922.375 9.13215 922.157 10.875 922.064C17.7993 921.692 25.4213 922.526 32.4061 922.737C54.2752 923.398 76.6244 925.019 98.4714 924.131C94.5023 920.404 90.6091 916.727 87.6964 912.084C80.7627 901.033 79.5421 887.81 79.1072 875.085C78.7848 865.65 79.4329 856.082 79.7633 846.648L81.1902 802.5L88.1524 616.026L92.6 490.985L93.6496 457.853C93.9511 446.781 93.6786 435.158 96.2868 424.343C97.8195 417.988 100.149 412.079 104.5 407.122C112.478 398.032 127.209 391.379 137.698 385.248Q151.064 377.447 164.279 369.392L178.124 77.8441C176.96 77.4277 175.78 76.9378 174.734 76.2676C173.577 75.526 172.781 74.3996 172.63 73.01C172.477 71.5971 172.889 70.4501 173.754 69.3546C176.789 65.5107 185.7 65.9399 190.262 65.7381ZM338.301 123.313C330.104 163.508 319.911 203.387 310.785 243.391Q291.248 329.725 273.237 416.391C266.993 446.016 260.119 475.52 255.054 505.379C270.221 518.129 286.827 529.042 302.848 540.67L365.062 586.757L417.902 625.976C428.025 633.611 437.924 642.224 448.696 648.88C453.825 645.071 458.941 640.718 464.415 637.445C477.675 629.518 494.217 628.571 509.166 630.815C531.2 634.123 538.052 643.668 555.417 654.66C567.908 648.18 579.343 638.983 591.111 631.251L641.214 598.938C650.567 592.904 659.781 586.6 669.221 580.71Q706.105 557.311 742.593 533.3C754.705 525.451 768.145 518.327 779.113 508.938C782.878 498.408 785.151 487.287 787.665 476.4Q791.686 458.613 796.294 440.97C807.079 399.087 816.508 356.96 826.043 314.778Q832.871 285.266 838.877 255.576C841.118 244.683 843.587 233.764 845.211 222.76C808.501 216.266 771.975 208.624 735.343 201.699L499.52 156.159L405.215 136.948C382.907 132.339 360.696 127.497 338.301 123.313ZM111.624 414.461C108.861 421.271 106.668 427.739 105.866 435.075C103.828 453.715 104.044 472.885 103.282 491.625L98.709 607.611Q94.3759 701.281 92.2359 795.027C91.4973 821.439 89.2785 848.083 89.7689 874.492C89.9331 883.338 90.2127 892.054 93.8137 900.303C94.5862 902.072 95.4632 903.817 96.3677 905.523C124.652 886.492 151.746 865.156 179.219 844.943L281.257 770.894L388.764 692.623L420.097 669.638C426.349 665.081 433.114 660.817 438.825 655.595Q323.305 568.932 206.325 484.252L145.734 439.315C134.643 431.009 123.594 421.416 111.624 414.461ZM904.752 432.389C893.076 444.638 878.501 454.434 864.805 464.296C832.305 487.697 798.422 509.186 764.795 530.928L563.897 661.346C573.14 668.007 581.932 675.367 590.949 682.336Q617.951 703.197 644.627 724.475C666.269 741.824 687.871 759.515 710.18 776Q797.611 845.164 885.81 913.343C891.991 902.949 892.989 891.228 894.026 879.425C896.349 852.971 896.901 826.332 897.743 799.798Q899.237 740.622 901.69 681.479L907.854 540.308L910.205 495.619C910.98 482.626 914.354 455.309 911.388 443.991C910.217 439.524 907.978 435.677 904.752 432.389ZM973.824 404.962C962.741 411.249 951.895 417.889 940.98 424.459C934.354 428.448 927.349 432.16 921.195 436.861L922.55 443.024C926.451 441.225 933.306 437.426 937.722 438.743L937.994 439.521C935.254 444.824 921.873 449.254 922.39 453.253C925.354 453.747 932.309 449.813 934.123 452.128C932.504 456.598 923.335 458.346 922.568 462.704C925.928 462.911 928.188 459.006 931.817 460.352C932.343 461.511 932.33 461.702 932.174 462.973C929.859 466.707 923.835 467.704 922.547 471.967C925.077 472.633 927.885 471.042 930.193 472.32C930.502 473 930.769 473.105 930.417 473.858C928.54 477.878 922.589 478.516 921.695 483.063L922.443 484.229C925.658 484.379 928.141 480.917 931.258 482.744C931.602 483.573 931.727 483.396 931.406 484.159C929.252 489.288 918.395 490.455 921.06 497.149C921.369 497.926 921.365 497.691 922.27 498.084C924.243 497.586 926.563 495.902 928.47 496.009C929.594 496.828 929.41 497.04 929.773 498.32C928.077 504.887 917.725 503.678 922.043 512.773C921.705 515.664 920.282 518.408 920.059 521.226C919.845 523.932 921.427 526.738 921.093 529.431C920.584 533.526 916.86 539.149 919.965 542.916C920.483 543.544 921.127 544.113 921.721 544.671C921.908 545.898 921.627 546.356 920.868 547.342C920.145 548.281 919.313 549.16 918.52 550.042C918.372 555.728 918.304 561.444 917.882 567.116C917.497 572.282 916.354 578.058 916.901 583.213C917.04 584.519 917.704 585.723 918.279 586.883C916.496 593.314 915.542 599.216 915.555 605.893C917.167 606.068 918.945 605.978 920.157 607.176C920.322 608.231 920.4 608.455 919.723 609.376C918.646 610.841 916.682 612.093 915.19 613.16L914.983 625.192C916.871 624.7 918.634 624.065 920.592 624.489L921.487 625.232C921.601 626.894 920.814 628.11 919.719 629.339C918.336 630.89 916.4 631.862 914.585 632.823L914.618 641.999C916.583 641.763 918.072 641.537 919.972 642.178L920.915 643.071C920.884 644.623 920.319 645.524 919.229 646.631C917.811 648.071 915.883 649.105 914.164 650.147C913.577 654.072 913.24 657.769 913.493 661.741C915.412 661.196 916.9 660.748 918.899 661L919.833 661.706C919.804 663.378 918.821 664.701 917.605 665.852C916.298 667.089 914.692 667.848 913.301 668.944C912.701 672.405 911.882 676.428 912.851 679.869L913.483 680.541C915.183 680.258 916.957 679.479 918.573 680.025C919.012 681.247 919.097 681.447 918.45 682.684C917.495 684.512 914.268 686.256 912.554 687.371C912.353 691.4 912.113 695.42 912.235 699.456C914.009 698.498 915.455 697.597 917.515 697.509L918.333 698.079C918.416 699.612 917.456 701.012 916.436 702.097C915.227 703.384 913.655 704.296 912.162 705.212C911.64 709.598 911.424 713.902 911.357 718.318C912.967 718.179 914.378 717.915 915.892 718.629C916.266 719.211 916.607 719.354 916.365 720.079C915.637 722.263 912.943 723.599 911.063 724.654C910.978 727.822 910.248 732.678 911.2 735.619L911.504 735.773L913.735 737.269C913.704 739.028 912.427 739.961 911.544 741.41C910.912 742.447 910.734 743.646 910.625 744.835C908.845 764.25 908.898 784.068 908.007 803.557C907.167 821.938 905.126 843.361 906.142 861.593C912.347 835.093 915.778 808.111 920.255 781.278Q932.518 710.282 943.825 639.128L966.213 501.79L972.601 461.875C974.358 451.386 976.468 440.851 977.468 430.257C978.093 423.626 979.095 412.119 975.235 406.185C974.783 405.491 974.611 405.253 973.824 404.962ZM972.715 136.713C959.468 137.862 942.162 138.229 929.58 141.754C929.258 146.758 928.782 151.781 928.569 156.789C933.291 153.677 941.086 147.323 946.761 147.313L947.502 147.84C947.684 149.266 947.537 150.165 946.622 151.328C942.275 156.85 928.439 162.054 927.018 168.589L927.404 169.396C933.357 170.35 945.595 155.646 950.674 158.536C950.819 160.032 950.117 161.295 949.169 162.418C944.905 167.468 932.353 175.07 926.563 178.195C926.45 181.332 926.506 184.606 926.12 187.716C931.653 184.207 938.179 179.058 945.084 179.546L945.615 180.117C944.343 184.421 929.602 193.835 925.666 196.41L925.457 204.07C931.569 200.626 938.713 194.959 945.787 194.336L946.734 194.763C946.464 196.866 944.207 198.761 942.594 200.033C938.815 203.012 925.242 210.864 924.493 215.39C925.786 215.897 927.255 215.307 928.514 214.776C932.131 213.252 936.234 210.424 940.279 211.382C940.798 212.084 941 211.971 940.81 212.678C939.823 216.359 926.876 224.287 923.471 226.976C922.932 230.409 922.461 233.811 922.17 237.274C926.425 234.888 941.469 225.446 946.09 226.871C946.336 226.946 946.568 227.058 946.807 227.152C947.071 228.232 947.189 227.845 946.669 228.737C943.699 233.835 927.168 242.868 921.519 246.943C921.121 250.215 920.617 253.52 920.492 256.814C925.923 253.222 932.569 247.593 938.948 246.381L940.353 247.367C938.775 255.775 920.862 263.316 920.064 267.873C919.949 268.527 920.463 269.141 920.662 269.775L919.476 269.531C922.135 270.421 925.743 268.234 928.161 267.033C931.206 265.52 935.184 262.996 938.65 262.888C939.742 263.826 940.255 264.354 940.846 265.714C940.644 266.77 940.409 267.389 939.525 268.076C934.467 272.008 919.307 278.729 917.902 284.451C917.832 284.736 917.863 285.037 917.843 285.33C919.413 286.041 920.683 285.566 922.264 284.995C926.124 283.602 934.255 278.14 938.192 279.767C938.875 280.049 938.859 280.595 939.097 281.23C938.129 284.934 933.352 287.467 930.242 289.299C925.939 291.834 921.387 293.988 917.149 296.618C916.807 299.091 916.414 301.564 916.251 304.057C921.449 300.972 939.476 289.223 945.006 289.974C945.39 290.54 945.704 290.688 945.559 291.421C944.134 298.615 920.968 306.681 916.212 313.01C915.16 314.41 915.376 317.483 915.346 319.14C920.7 316.174 938.033 305.043 943.636 306.581C943.811 306.629 943.971 306.721 944.139 306.791C944.215 308.09 943.543 308.743 942.716 309.685C936.744 316.488 923.22 323.152 914.628 325.925C914.344 328.953 913.975 332.005 913.836 335.041C916.585 333.38 919.325 331.594 922.206 330.176C926.131 327.999 935.315 321.824 939.676 323.494C940.194 323.692 940.46 323.92 940.887 324.23C941.104 325.053 941.347 325.134 940.855 325.905C937.572 331.058 920.277 337.43 914.439 341.51C913.368 343.717 912.279 345.904 911.373 348.185L912.031 347.88C918.383 344.898 930.313 332.586 937.147 334.563C937.573 335.257 937.863 335.363 937.67 336.23C937.36 337.621 936.479 338.801 935.496 339.807C932.139 343.246 927.127 346.002 923.22 348.844C919.385 351.633 915.673 354.795 911.659 357.309L910.404 367.363C916.432 363.799 928.302 355.322 934.958 354.468L935.899 354.852C935.633 357.521 931.684 360.351 929.685 361.996C925.686 365.284 908.868 374.543 908.49 378.709C908.394 379.757 908.73 380.763 909.01 381.756L909.784 382.4C917.097 380.633 924.468 371.474 931.749 371.684L932.692 372.4C932.763 373.647 932.692 374.377 931.881 375.397C927.661 380.706 908.527 387.601 907.507 393.32C908.097 394.083 907.783 393.986 908.673 394.081C916.05 394.869 939.365 374.307 944.114 378.979C943.906 380.97 943.158 381.908 941.632 383.18C933.749 389.754 921.321 394.997 912.295 400.635C910.404 401.816 908.491 404.042 907.594 406.073L908.126 406.265C913.751 403.495 933.545 390.025 939.338 391.932C939.663 392.039 939.962 392.21 940.273 392.35C940.308 393.32 940.326 393.582 939.645 394.367C935.199 399.498 913.22 410.504 906.64 414.113L916.518 426.836C925.6 422.05 934.294 416.377 943.069 411.046C951.831 405.722 960.902 400.606 969.285 394.698C964.192 389.432 958.034 384.723 953.539 378.963C953.764 360.059 956.738 340.696 958.327 321.842L968.888 201.5C969.728 192.672 975.324 142.029 973.748 136.766L972.715 136.713ZM827.119 338.18Q824.402 349.329 821.981 360.546C824.045 358.776 826.442 356.021 829.29 356.096C830.379 357.01 830.393 357.122 830.76 358.506C829.911 362.443 826.344 364.679 823.805 367.547C826.321 366.13 832.155 362.022 835.15 363.084C835.284 363.131 835.402 363.216 835.528 363.282C835.767 364.795 835.309 365.748 834.408 366.978C830.421 372.419 823.271 375.285 818.138 379.527C817.474 381.78 816.788 384.024 816.254 386.313L816.927 385.983C822.091 383.417 831.54 374.975 837.352 377.104C837.562 377.181 837.759 377.291 837.963 377.385C838.213 378.497 838.346 378.116 837.841 378.984C835.833 382.436 821.269 391.658 817.42 392.446Q816.141 392.705 814.852 392.908L813.518 400.007C819.781 396.11 833.444 385.728 840.336 385.684L841.552 386.552C840.805 390.661 835.255 391.847 833.95 395.354C836.592 395.066 839.552 393.475 842.171 394.29C842.128 395.449 841.627 395.668 840.782 396.433C838.879 398.155 836.221 399.125 833.888 400.142C826.162 411.881 818.432 414.56 807.615 422.384C806.256 426.859 805.291 431.312 804.459 435.909C813.314 431.038 839.315 414.427 848.697 415.249L849.098 415.901C848.163 417.604 846.772 418.643 845.185 419.731C839.419 423.685 832.808 426.686 826.718 430.141C818.913 434.568 811.237 440.16 802.805 443.302C801.628 447.21 800.537 451.101 799.61 455.075Q814.617 447.814 829.394 440.094C834.884 437.222 840.369 433.879 846.105 431.57C848.256 430.704 850.339 430.055 852.672 429.978L853.303 430.393C853.123 432.125 851.679 433.273 850.4 434.303C848.192 436.082 845.555 437.444 843.044 438.75C829.985 445.661 811.241 456.819 797.78 461.779Q796.601 466.491 795.484 471.218C807.898 466.247 819.883 459.257 831.754 453.082C838.714 449.461 847.011 444.741 854.687 443.052L856.293 444.192C855.259 445.908 854.134 447.022 852.493 448.184C847.704 451.578 841.865 454.09 836.71 456.91C822.579 464.639 808.606 472.407 793.797 478.803L791.276 488.356C807.138 480.78 822.281 471.833 837.847 463.709C843.408 460.807 849.576 461.119 854.972 458.646C864.161 454.435 891.123 433.602 898.922 425.977C885.136 406.824 869.471 388.983 854.585 370.695C848.659 363.415 833.325 341.985 827.119 338.18ZM700.944 147.702C694.762 148.324 688.654 149.025 682.614 150.555C666.63 154.602 639.704 166.446 625.385 175.133C654.206 180.647 683.119 185.648 711.901 191.373C732.686 195.551 753.882 198.664 774.529 203.383C764.119 188.583 747.66 164.66 732.73 155.146C727.362 151.725 721.426 149.669 715.176 148.571C710.66 147.777 705.505 147.244 700.944 147.702ZM767.05 179.107C768.931 181.685 771.055 184.278 772.671 187.024C785.057 188.138 797.475 188.512 809.897 189.041C830.052 189.899 850.253 191.117 870.173 187.199L871.881 186.322L872.051 185.649C865.865 180.964 779.983 179.028 767.05 179.107ZM161.626 381.423C148.212 389.256 133.764 397.178 121.835 407.22C134.544 415.747 144.139 424.906 158.072 432.495C158.479 430.122 159.537 426.92 158.371 424.723C157.364 424.527 156.614 424.66 155.612 424.84C154.499 424.545 154.612 424.734 153.818 423.743C153.881 420.272 160.314 416.277 159.791 414.126C156.992 414.945 151.399 417.944 148.806 416.534C148.027 416.11 147.988 415.703 147.608 414.955C148.249 412.176 151.214 410.422 153.48 409.003C155.825 407.536 159.871 405.714 161.074 403.137C155.388 403.442 148.089 411.134 143.207 408.035C142.772 406.866 142.67 406.255 143.17 405.062C145.126 400.392 157.273 395.34 161.874 392.838C162.162 390.181 163.471 383.707 161.928 381.522L161.626 381.423ZM578.387 126.234C565.867 126.586 553.285 126.764 540.8 127.785C554.722 131.908 571.284 131.309 585.808 131.555Q617.342 131.841 648.875 131.524C660.956 131.623 675.264 131.353 687.148 129.433C651.243 126.226 614.432 125.752 578.387 126.234ZM321.286 125.722C310.175 126.244 299.011 126.544 287.937 127.599C280.897 128.27 273.953 129.561 266.934 130.319C272.759 131.79 278.611 132.9 284.539 133.858Q306.514 137.099 328.708 137.989C329.697 133.916 330.651 129.877 332.088 125.932C328.489 125.786 324.888 125.577 321.286 125.722ZM246.333 234.207C240.643 234.659 234.725 234.986 229.201 236.468C242.017 243.307 264.972 241.001 279.375 240.579C285.516 240.477 291.547 239.683 297.569 238.506C282.014 235.002 262.23 232.719 246.333 234.207ZM800.278 119.215C791.812 119.617 782.944 119.769 774.636 121.543C790.456 123.361 806 123.856 821.921 124.036C826.192 124.026 840.21 124.819 843.304 122.389C842.38 120.927 840.393 120.535 838.761 120.172C828.681 117.928 811.094 118.712 800.278 119.215ZM259.832 306.215Q249.945 306.758 240.167 308.317C251.242 311.696 262.177 311.692 273.625 312.087C277.76 312.199 286.827 313.259 289.732 309.905C290.142 309.431 290.133 309.362 290.343 308.859C289.986 307.674 289.777 307.504 288.615 306.867C284.898 304.829 265.113 306.059 259.832 306.215ZM834.745 303.445C834.434 305.405 834.059 307.377 833.907 309.357C849.849 309.485 865.734 309.623 881.667 308.967L881.483 308.135C871.103 303.573 846.592 303.456 834.745 303.445ZM634.285 108.22C623.217 108.68 612.119 108.966 601.217 111.086Q617.239 112.889 633.355 113.362C643.855 113.504 654.283 112.453 664.749 112.461C654.606 109.435 644.947 107.696 634.285 108.22ZM827.364 476.977L803.734 489.41C799.255 491.728 794.16 493.811 790.043 496.719C789.119 497.372 788.685 497.907 788.366 498.994C787.967 500.357 787.994 501.538 788.098 502.94L788.633 503.588C793.288 500.596 825.668 480.529 827.726 477.246L827.364 476.977ZM829.908 398.456C825.082 400.834 811.213 406.032 809.651 411.116C809.384 411.986 809.703 412.653 810.137 413.379L810.416 413.56C815.193 410.672 828.074 403.288 830.67 399.137L830.454 398.49L829.908 398.456Z"/>
	<path fill="#131518" d="M704.083 156.693C707.075 156.771 709.947 157.133 712.828 157.957C721.131 160.335 733.576 167.445 737.607 175.351C738.337 176.784 738.899 178.229 738.337 179.805C734.434 182.168 724.442 170.61 720.746 168.238C715.68 164.987 710.277 162.708 704.23 162.222C704.053 162.208 703.877 162.199 703.7 162.187C693.395 162.862 682.995 168.664 673.291 171.987C670.285 173.016 665.017 175.146 662.043 173.697C662.138 172.683 662.157 172.545 662.795 171.741C669.356 163.478 693.861 158.031 704.083 156.693Z"/>
	<path fill="#131518" d="M849.382 405.598C850.504 406.224 850.688 406.249 851.238 407.388C851.172 407.553 851.126 407.728 851.038 407.883C848.943 411.583 836.816 415.739 832.624 416.959C831.41 416.236 831.216 416.242 830.695 414.953C830.775 414.771 830.836 414.579 830.936 414.408C833.5 409.999 844.817 407.006 849.382 405.598Z"/>
	<path fill="#131518" d="M130.176 604.69C130.971 604.769 131.99 604.787 132.739 605.047C133.904 605.452 134.527 605.937 134.958 607.098C136.406 610.992 134.982 659.551 133.638 663.403C132.796 663.439 131.507 663.398 130.725 663.063C129.975 662.743 129.66 662.463 129.373 661.73C127.407 656.709 128.257 616.729 128.972 609.077C129.118 607.509 129.577 606.137 130.176 604.69Z"/>
	<path fill="#131518" d="M116.171 481.33C117.269 481.384 118.124 481.369 119.148 481.814C120.022 482.194 120.566 483.006 120.897 483.882C121.5 485.482 121.714 487.393 121.76 489.089C122.09 501.016 121.202 513.286 120.963 525.249Q120.293 567.258 118.871 609.249Q117.348 659.143 114.865 708.999C114.039 727.924 113.952 747.176 112.189 766.03C111.995 768.109 111.589 769.908 110.768 771.833C109.279 771.806 108.198 771.844 106.871 771.052C106.108 769.906 106.029 768.873 105.928 767.535C105.508 761.999 106.109 756.156 106.363 750.606Q107.078 734.654 108.097 718.718Q110.61 678.185 112.022 637.599Q113.88 584.604 114.806 531.585C115.138 515.414 113.596 497.108 116.171 481.33Z"/>
	<path fill="#EAD9EF" d="M492.349 640.703C505.055 639.389 518.408 643.014 529.387 649.37C541.766 656.537 552.949 666.844 564.236 675.622L630.542 727.306L800.457 860.238C826.402 880.544 851.992 901.304 878.209 921.257C868.575 930.348 855.623 933.681 842.804 935.293C828.476 937.095 813.973 936.299 799.573 936.168L735.763 935.529L496.125 932.019L239.321 928.727Q209.661 928.101 179.994 928.01C163.872 927.947 147.262 928.652 131.274 926.323C121.042 924.833 111.818 920.595 103.61 914.398C127.816 893.902 154.767 876.075 180.459 857.475L312.612 761.718Q362.345 725.828 411.686 689.399L447 663.218C454.295 657.868 461.577 652.302 469.317 647.61C476.793 643.079 483.723 641.603 492.349 640.703Z"/>
	<path fill="#131518" d="M374.785 526.371C380.46 527.351 386.781 527.992 392.136 530.147C394.003 530.898 395.022 531.623 395.826 533.48C395.369 535.112 394.875 535.427 393.687 536.585C388.277 536.306 380.612 535.314 375.764 532.855C374.308 532.117 373.394 531.343 372.888 529.736C373.191 528.092 373.738 527.64 374.785 526.371Z"/>
	<path fill="#131518" d="M586.837 565.506Q588.258 565.455 589.679 565.478C596.958 565.587 626.522 568.337 632.624 570.229C633.727 570.572 634.35 571.107 635.14 571.924C635.565 573.468 635.298 574.067 634.93 575.598C634.369 575.646 633.809 575.704 633.246 575.723C626.254 575.948 590.452 573.352 586.725 569.886C586.05 568.384 586.519 567.042 586.837 565.506Z"/>
	<path fill="#131518" d="M306.645 512.98C313.763 514.042 320.669 516.172 327.677 517.772C334.25 519.272 341.139 520.284 347.56 522.308C349.477 522.913 351.139 523.332 352.106 525.187C351.91 526.921 350.873 527.934 349.81 529.227C337.409 527.013 321.32 524.677 309.696 520.243C307.541 519.42 305.684 518.691 304.705 516.511C304.954 514.93 305.657 514.16 306.645 512.98Z"/>
	<path fill="#131518" d="M459.714 543.463C475.218 546.876 491.412 548.691 507.124 551.077C514.721 552.23 524.014 552.826 531.131 555.75C532.569 556.341 533.037 556.834 533.619 558.251C533.427 559.731 532.572 560.571 531.656 561.673C526.001 560.532 520.164 559.913 514.458 559.003Q495.364 555.988 476.312 552.716C471.339 551.85 463.846 551.354 459.368 549.129C458.118 548.508 457.881 547.989 457.477 546.711C457.867 545.187 458.63 544.514 459.714 543.463Z"/>
	<path fill="#131518" d="M563.558 512.552C576.435 513.074 628.577 520.591 639.677 525.684C641.181 526.374 641.607 527.012 642.14 528.536C641.763 530.112 641.158 530.624 639.977 531.612C624.378 530.207 606.571 525.497 590.948 522.598C582.238 520.982 572.334 520.583 563.968 517.763C562.513 517.272 562.384 517.222 561.721 515.911C561.945 514.418 562.633 513.671 563.558 512.552Z"/>
	<path fill="#131518" d="M313.856 470.622C323.549 470.944 333.376 473.082 342.953 474.55Q368.714 478.387 394.401 482.695C425.819 487.914 457.379 493.011 488.579 499.396C498.86 501.499 511.081 503.149 520.881 506.671C522.861 507.382 524.635 508.026 525.586 510.02C525.314 511.464 525.021 511.599 523.963 512.657C510.569 512.563 487.443 505.926 473.355 503.303Q418.321 492.916 362.986 484.272C355.496 483.116 315.551 478.207 312.764 475.882C311.646 474.949 311.718 474.599 311.651 473.25C312.233 471.915 312.657 471.445 313.856 470.622Z"/>
	<path fill="#131518" d="M583.69 300.677C599.409 300.562 709.252 318.545 715.188 325.308C715.977 326.207 716.333 327.344 716.099 328.532C715.591 331.113 712.445 332.797 710.365 333.886C709.55 333.929 708.792 333.948 707.977 333.908C701.399 333.584 694.722 332.048 688.241 330.889L656.917 325.271C634.613 321.284 610.402 318.197 588.535 312.831C586.395 312.306 580.661 310.907 579.422 309.178C578.696 308.166 578.448 307.162 578.678 305.942C579.168 303.346 581.57 301.829 583.69 300.677Z"/>
	<path fill="#131518" d="M576.917 349.594Q579.703 349.492 582.49 349.569C602.251 350.282 622.013 355.64 641.387 359.181C653.608 361.414 715.607 371.11 720.412 377.788C721.12 378.771 721.262 379.667 720.991 380.827C720.426 383.257 717.677 384.733 715.626 385.612C707.451 385.491 698.95 383.572 690.898 382.184L652.84 375.494Q630.829 371.717 608.871 367.64C599.497 365.933 589.916 364.477 580.731 361.909C577.681 361.056 574.188 359.778 571.881 357.54C570.838 356.528 570.565 355.702 570.529 354.283C571.664 351.943 574.542 350.427 576.917 349.594Z"/>
	<path fill="#131518" d="M590.184 251.218C600.027 251.086 610.043 252.457 619.754 253.945C636.577 256.521 730.883 274.237 739.483 283.048C740.523 284.113 740.767 285.011 740.763 286.458C739.68 288.582 737.09 289.913 734.92 290.678C724.642 290.5 714.267 288.603 704.175 286.773C686.891 283.639 669.787 279.652 652.551 276.305L615.378 269.233C607.736 267.73 599.51 266.498 592.201 263.764C589.552 262.774 585.836 260.949 584.867 258.039C584.5 256.937 584.65 255.902 585.207 254.901C586.359 252.832 587.999 251.916 590.184 251.218Z"/>
	<path fill="#131518" d="M320.55 421.59C328.214 421.347 336.031 422.205 343.608 423.343C352.127 424.624 360.585 426.6 369.031 428.297L412.772 436.943C482.581 450.584 552.441 463.259 621.498 480.465C628.978 482.329 646.358 485.308 651.652 489.5C652.93 490.511 653.289 491.463 653.48 493.029C652.931 494.662 652.208 495.273 650.93 496.319C642.176 497.214 612.797 488.045 602.54 485.503Q583.913 480.878 565.138 476.899Q484.033 460.061 402.642 444.664C393.39 442.857 322.994 430.138 319.893 427.888C318.764 427.069 318.647 426.252 318.39 424.959C318.798 423.339 319.338 422.718 320.55 421.59Z"/>
	<path fill="#131518" d="M331.902 380.579C336.173 380.301 340.42 380.488 344.676 380.921C363.999 382.887 383.596 387.019 402.716 390.484C447.281 398.562 491.549 408.075 535.95 416.995L637.105 436.526C654.866 440.005 673.138 443.079 690.619 447.77C693.535 448.553 697.776 449.859 699.546 452.529C700.248 453.587 700.591 454.676 700.164 455.927C699.5 457.877 697.72 458.949 696.076 459.971C693.801 460.138 691.487 460.064 689.213 459.894C672.881 458.675 656.381 454.743 640.28 451.779C606.243 445.513 572.299 438.584 538.337 431.922L413.09 407.124Q393.136 403.338 373.144 399.762C361.998 397.818 350.824 396.16 339.787 393.627C336.17 392.797 331.183 391.603 328.796 388.578C328.005 387.576 327.656 386.326 328.007 385.068C328.589 382.975 330.181 381.722 331.902 380.579Z"/>
	<path fill="#131518" d="M369.097 193.986C375.092 193.89 381.632 195.919 387.5 197.133L416.279 203.036C439.78 207.783 463.556 211.616 486.954 216.788C489.634 217.381 493.812 218.051 496.032 219.675C496.379 221.524 496.235 223.187 495.915 225.028C495.023 230.148 493.497 235.307 492.349 240.395Q488.514 257.262 485.007 274.2L474.033 327.793C471.693 338.994 469.97 351.576 465.344 362.078C458.634 362.288 450.324 359.691 443.647 358.399L398.882 349.698C381.014 346.265 362.831 343.967 345.045 340.218C342.871 339.76 341.014 339.083 339.079 337.973C340.363 328.088 342.606 318.225 344.511 308.437Q350.255 279.059 356.432 249.77C358.399 240.273 365.446 200.117 369.097 193.986ZM373.244 200.409C368.198 220.258 364.967 240.671 360.861 260.739C355.872 285.125 350.07 309.423 345.793 333.943C384.614 340.394 423.091 348.63 461.831 355.479C468.009 330.326 472.422 304.56 477.88 279.218Q480.811 265.433 483.934 251.69C486.016 242.61 488.461 233.25 489.204 223.945Q447.082 214.911 404.793 206.692Q394.214 204.539 383.612 202.505C380.227 201.85 376.529 201.415 373.244 200.409Z"/>
</svg>
