<?xml version="1.0" encoding="utf-8" ?>
<svg xmlns="http://www.w3.org/2000/svg" xmlns:xlink="http://www.w3.org/1999/xlink" width="1024" height="1024">
	<path fill="white" d="M0 0L1024 0L1024 328.5L1024 332.727L1024 1024L0 1024L0 0Z"/>
	<path fill="#111418" d="M143.642 342.091C145.869 342.11 148.131 341.924 150.313 342.434C159.627 344.608 170.23 356.411 178.982 361.561L179.502 361.861Q190.708 361.572 201.813 363.106C212.518 364.562 223.022 367.689 229.69 376.782C232.818 381.047 233.657 385.915 232.682 391.073C231.055 399.679 224.536 407.271 218.278 413.03C210.735 419.971 201.996 425.819 193.594 431.665Q172.844 446.098 151.459 459.571Q113.637 484.043 75.5088 508.036Q56.3744 520.106 37.4045 532.434C30.4442 536.923 23.3566 541.146 16.5834 545.92C13.9715 547.761 9.88519 550.984 6.54422 550.409C5.56515 549.388 5.67686 549.253 5.56313 547.819C6.04511 546.483 7.13658 545.747 8.2683 544.963C18.3653 537.965 29.3299 531.95 39.6625 525.262L149.502 455.091C168.831 442.652 188.698 430.637 206.778 416.394C215.183 409.773 227.189 400.731 228.26 389.149C228.666 384.764 227.151 380.562 224.28 377.257C218.8 370.948 209.736 368.741 201.72 368.132C201.551 368.119 201.381 368.11 201.211 368.099C206.801 371.011 211.835 373.588 215.548 378.869C216.848 381.94 217.029 384.539 216.02 387.745C214.35 393.056 210.361 397.381 206.1 400.808C190.649 413.234 172.738 423.582 155.938 434.069L71.8287 485.601L28.061 512.223C22.0598 515.839 16.1713 520.174 9.83349 523.164C8.49024 523.798 7.16143 524.138 5.71276 523.652L5.30722 522.734C5.69723 521.277 6.19217 520.303 7.38094 519.365C13.8289 514.278 27.174 507.316 34.7193 502.72L133.495 442.277C156.717 428.082 182.545 413.707 203.5 396.442C206.512 393.96 210.522 390.121 211.628 386.323C212.26 384.154 211.394 381.551 210.181 379.73C205.601 372.857 192.807 369.571 185.177 368.027C190.233 375.433 196.303 385.708 198.061 394.526C196.757 395.858 194.556 395.959 192.791 396.117C179.008 397.345 164.493 396.309 150.632 396.387C136.428 396.467 122.108 397.581 107.927 396.824C106.439 396.744 104.897 396.668 103.714 395.677C103.522 394.317 103.672 394.38 104.5 393.254C106.565 391.962 111.298 392.585 113.816 392.641C111.925 389.863 110.506 386.88 109.864 383.566C108.313 375.561 111.133 367.791 115.595 361.241C122.126 351.655 132.16 344.28 143.642 342.091Z"/>
	<path fill="white" d="M142.822 346.577C145.109 346.323 147.588 346.214 149.839 346.736C156.1 348.185 159.529 353.264 164.165 357.154C165.961 358.662 168.352 359.073 170.314 360.297C176.235 363.991 181.717 370.671 185.32 376.572C187.387 379.957 191.743 387.49 190.781 391.424C187.823 393.156 165.3 392.032 160.375 392C147.231 391.987 133.566 394.134 120.528 392.625C117.093 389.469 115.2 386.28 113.472 382.029C114.532 377.73 114.832 373.704 116.59 369.532C121.611 357.615 131.3 351.264 142.822 346.577Z"/>
	<path fill="#111418" d="M783.409 258.316C773.254 256.379 759.64 255.103 753.291 245.823C751.244 242.83 750.282 239.45 749.179 236.046C747.553 231.028 745.922 226.236 742.823 221.898C735.62 211.815 725.126 208.311 713.162 209.382C707.957 209.848 702.369 210.883 697.19 209.866C691.465 208.742 687.123 205.15 683.934 200.393C663.374 169.723 693.889 156.698 703.532 132.101C707.554 121.842 704.989 110.941 707.189 100.38C708.304 95.0298 710.474 90.86 713.647 86.4792C721.095 76.1974 749.139 50.5383 759.911 43.6542C770.283 37.0255 786.52 30.9076 797.505 39.7016C803.9 44.8215 805.151 49.3411 814.127 51.3572Q815.598 50.9249 817.076 50.518C835.442 45.4683 850.816 41.9675 868.157 51.9316C878.317 57.7699 883.638 67.8595 883.521 79.491C883.465 85.0789 882.421 91.3052 883.996 96.7281C885.753 102.776 890.928 107.73 896.343 110.597C901.807 102.036 907.626 93.6217 914.556 86.161C923.279 76.7705 934.725 70.9734 947.654 70.6486C955.915 70.4411 964.411 72.3703 970.491 78.3157C973.717 81.4694 976.21 85.4665 977.825 89.6659C981.869 100.184 982.414 111.608 985.56 122.338C988.173 131.252 994.506 140.439 994.291 149.923C993.985 163.42 961.926 220.809 953.517 233.187C951.061 236.802 948.503 239.722 945.294 242.696C947.346 252.572 945.06 262.339 946.046 272.305C952.301 272.623 966.821 271.206 971.773 272.86C972.17 273.426 972.284 273.529 972.564 274.246C973.403 276.394 972.85 279.606 971.967 281.643C968.23 284.228 952.338 281.293 947.043 281.746L946.432 282.48C946.338 283.891 946.137 284.977 946.947 286.228C947.766 286.785 948.467 287.16 949.451 287.292C951.716 287.597 954.206 287.184 956.489 287.112C963.252 286.9 971.125 286.482 977.771 287.582C977.977 287.616 978.181 287.657 978.386 287.694C978.621 290.022 979.403 293.645 978.031 295.613C971.327 297.186 953.085 295.951 945.442 295.477L945.739 302.076C956.305 302.055 966.917 302.325 977.432 302.997C979.562 303.133 981.823 302.653 983.93 302.979C984.659 303.091 985.414 303.452 985.961 303.945C986.92 304.811 987.417 306.236 987.421 307.51C987.426 308.75 986.978 310.077 986.058 310.939C983.909 312.95 976.436 311.993 973.519 312.021C973.828 317.466 974.239 323.048 973.379 328.453Q998.689 328.674 1024 328.5L1024 332.727C1010.47 332.427 996.888 332.677 983.351 332.587L855.285 332.445L683.88 332.224C687.721 337.898 689.815 344.562 692.881 350.67C691.16 356.098 689.945 362.02 687.52 367.174C686.542 369.252 685.676 370.789 683.45 371.589C680.059 369.728 679.119 360.166 677.553 356.571C674.815 350.286 664.224 342.362 658.874 337.624C658.266 335.078 657.623 332.89 656.406 330.539C656.645 336.25 659.039 357.934 657.309 361.563C655.221 365.943 657.983 372.052 655.374 375.702C654.89 376.38 655.058 376.381 654.294 376.449C650.888 376.75 643.691 374.29 640.937 372.237C639.966 371.513 639.741 371.163 639.476 369.991C638.674 366.438 638.666 362.341 638.336 358.693C637.538 349.858 636.953 340.765 635.479 332.023L635.365 331.378L546.381 331.489C546.463 333.684 546.923 337.043 545.794 338.981C544.531 341.148 540.872 341.973 538.645 342.778C536.99 345.606 535.506 347.829 532.609 349.533C530.613 350.707 528.644 351.647 526.309 351.067C525.736 350.502 525.369 350.341 525.205 349.506C524.648 346.68 526.985 343.649 528.331 341.296C528.142 341.168 527.946 341.05 527.764 340.912C525.813 339.429 525.818 337.114 525.481 334.874L516.201 335.52C515.115 338.243 514.117 341.255 512.493 343.711C510.403 346.87 507.59 348.254 503.938 348.955C501.83 349.359 499.49 349.76 497.613 348.49C497.241 347.563 496.907 346.889 497.447 345.898C499.613 341.921 506.23 338.881 507.592 334.343C507.814 333.603 507.422 333.24 507.106 332.599C505.374 331.705 470.219 331.438 465.352 331.627C461.85 331.762 458.68 333.403 455.057 333.42L313.276 333.403C298.482 333.37 283.716 332.703 268.916 332.877C265.52 337.887 262.253 345.768 257.708 349.61C256.494 350.636 255.586 350.825 254.043 350.683C252.933 349.8 252.778 349.607 252.256 348.29C252.548 343.453 258.143 337.382 260.959 333.396L84.7119 334.648L40.0129 334.547C33.0828 334.557 25.9388 335.128 19.0343 334.756C16.9282 334.642 14.9351 334.604 13.4532 332.979L13.6959 331.205C13.9967 330.937 14.2404 330.587 14.5982 330.401C16.7976 329.263 51.5987 330.131 57.0312 330.143C60.9222 316.64 67.8372 307.284 80.1928 300.204C86.7975 296.42 99.1924 291.98 106.789 294.077C107.342 294.686 107.752 294.771 107.544 295.708C107.289 296.86 106.055 297.84 104.981 298.164C103.112 298.729 100.761 298.65 98.8082 298.831C94.2251 299.255 89.8759 300.546 85.6849 302.43C72.7273 308.257 66.2037 317.559 61.2291 330.45C65.8204 330.419 70.4062 329.976 74.9999 329.912C85.5265 329.766 96.0473 329.872 106.577 329.667C108.785 311.444 108.871 292.173 107.898 273.868Q103.696 272.851 99.6047 271.452C86.3032 266.915 83.5267 257.066 77.8724 245.672C72.5801 235.008 64.0613 228.342 52.4806 225.549C47.6742 224.389 42.7395 223.665 38.0555 222.043C30.656 219.482 25.0865 215.116 21.6748 207.903C10.05 183.325 32.8602 177.128 37.38 159.501C39.4771 151.323 35.181 143.258 38.195 135.255C43.2057 121.949 58.7668 119.274 68.0691 110.369C73.5787 105.095 75.8212 97.4098 83.1076 93.8088C91.9994 89.4144 102.097 92.3849 111.252 89.5406C118.811 87.192 124.064 80.2781 131.301 76.9417C141.142 72.4045 152.035 70.9035 162.341 74.849C173.683 79.1908 178.718 89.6177 183.391 99.9947C189.019 96.7508 195.037 93.6773 200.073 89.543C210.064 81.3421 212.389 74.2895 226.182 68.9338C238.183 64.2735 251.289 66.1122 260.634 75.3945C263.869 78.6077 266.597 82.5299 270.722 84.6574C278.851 88.8492 288.477 90.0343 296.953 93.7814C304.856 78.4988 309.906 58.7044 323.891 47.6136C331.134 41.8697 340.195 40.6461 349.144 41.7142C359.495 42.9494 368.297 47.6353 374.26 56.3006C376.866 60.0866 379.04 64.3657 381.939 67.9244C391.209 79.3029 408.774 75.1902 421.476 76.635C430.329 77.6419 437.826 82.4283 443.26 89.367C446.689 93.7452 449.407 98.7538 450.813 104.152C453.453 114.29 452.436 124.385 453.699 134.616C455.885 152.318 463.308 170.382 461.019 188.396C458.417 208.884 440.403 210.125 424.354 213.452Q420.317 214.257 416.382 215.464Q412.446 216.671 408.652 218.268C401.841 221.181 397.437 226.282 391.705 230.718C392.885 251.6 396.066 272.426 396.672 293.328C410.659 301.784 417.165 297.821 430.741 301.662C443.055 305.146 453.865 317.605 459.935 328.317C475.967 328.811 492.028 328.165 508.069 328.549C507.152 322.997 507.731 317.008 507.887 311.393C501.985 311.864 496.412 312.032 490.53 311.271L490.479 302.48L508.368 302.456L508.127 294.896C504.201 294.847 496.149 296.427 493.082 293.663C492.243 292.907 491.83 291.779 491.728 290.678C491.591 289.201 491.829 287.504 492.917 286.407C495.801 283.501 506.669 285.076 510.537 285.114C512.301 282.637 514.154 280.275 516.085 277.926Q507.329 277.993 498.574 277.827C498.406 275.418 497.503 270.979 498.947 269.075C504.828 266.658 514.557 267.604 521.055 267.48C522.656 262.652 523.266 257.374 524.498 252.411C523.147 252.105 521.848 251.757 520.59 251.162C517.022 249.473 514.553 246.105 513.403 242.385C511.439 236.031 512.46 227.808 515.562 221.949C517.84 217.646 521.563 214.447 526.259 213.083C530.11 211.964 534.081 212.307 537.587 214.284C544.375 218.114 548.564 225.841 550.616 233.059C555.028 234.046 559.201 235.333 562.696 238.364C570.558 245.184 572.201 258.455 573.018 268.152C589.961 268.545 607.071 268.237 624.017 267.794C629.23 251.882 628.137 242.524 642.441 231.246C643.488 225.155 644.139 218.801 646.101 212.925C647.548 208.592 649.803 204.13 654.146 202.122C657.291 200.668 660.708 200.568 663.929 201.856C672.585 205.317 670.611 218.937 671.808 226.412C672.209 228.915 673.06 231.148 674.007 233.481C676.935 234.794 679.331 236.227 681.69 238.427C684.829 247.898 684.479 258.092 684.508 267.947L691.342 268.273C691.419 271.082 691.277 273.721 690.961 276.51L684.237 276.938L683.784 285.086C685.844 285.156 690.005 284.483 691.675 285.831C692.862 286.79 693.206 288.718 693.264 290.157C693.305 291.186 693.053 292.168 692.263 292.858C690.129 294.724 685.378 294.005 682.686 293.983C682.05 295.365 681.295 296.857 680.898 298.325C680.526 299.703 680.904 300.393 681.579 301.561C684.993 303.669 695.299 302.393 699.854 302.454C699.894 305.351 699.758 308.243 699.652 311.137C694.692 311.465 683.997 309.422 680.373 312.803C678.85 314.224 678.526 316.76 678.483 318.714C678.427 321.203 678.544 325.333 680.512 327.157C681.154 327.753 682.128 327.794 682.973 327.82C688.028 327.979 693.16 327.635 698.236 327.713Q739.079 328.149 779.924 327.983C780.738 304.737 782.904 281.605 783.409 258.316Z"/>
	<path fill="white" d="M258.551 255.268C259.186 255.333 259.827 255.4 260.453 255.534C262.301 255.928 263.461 257.013 264.411 258.574C264.338 259.637 264.263 259.536 263.654 260.317C262.82 259.707 262.01 259.027 260.965 258.85C259.952 258.678 258.875 258.602 257.85 258.469C257.465 257.195 258.067 256.467 258.551 255.268Z"/>
	<path fill="white" d="M253.296 323.448C253.377 327.47 260.635 325.64 263.432 328.769C260.39 328.784 256.29 329.875 253.623 328.205C252.769 326.428 253.115 325.386 253.296 323.448Z"/>
	<path fill="white" d="M686.958 352.482C686.962 356.087 684.914 361.22 683.603 364.622L682.302 356.491C683.728 354.992 685.339 353.762 686.958 352.482Z"/>
	<path fill="white" d="M292.71 317.027C293.944 316.858 294.723 316.826 295.926 317.162C296.889 318.177 297.097 318.342 297.383 319.693L296.731 320.485C294.879 321.084 294.013 320.569 292.165 320.06L290.909 319.412C289.812 319.516 289.112 319.453 288.054 319.145C289.266 318.055 291.181 317.582 292.71 317.027Z"/>
	<path fill="white" d="M528.327 253.996C528.677 252.236 529.018 250.539 529.609 248.843C531.247 247.603 533.513 248.187 535.541 248.275C534.146 249.86 531.965 251.786 531.263 253.774L528.841 254.659L528.327 253.996Z"/>
	<path fill="white" d="M529.86 333.563C533.423 333.331 537.908 332.504 541.283 333.922C542.164 335.075 542.228 335.319 542.411 336.765C539.38 337.136 534.565 338.189 531.789 336.826C530.247 336.068 530.312 335.081 529.86 333.563Z"/>
	<path fill="white" d="M931.834 281.96C934.853 281.895 938.896 280.923 941.498 282.69C942.074 284.228 941.788 284.897 941.503 286.489C939.617 286.821 935.214 287.791 933.628 286.738C932.186 285.782 932.162 283.561 931.834 281.96Z"/>
	<path fill="white" d="M511.089 325.363C514.912 325.961 521.115 323.935 524.224 326.589C525.573 327.741 525.407 328.866 525.562 330.467C522.065 330.522 515.765 330.978 512.695 329.034C511.189 328.081 511.37 326.972 511.089 325.363Z"/>
	<path fill="white" d="M650.926 361.152C651.758 362.191 652.196 366.688 652.029 368.097C651.876 369.383 651.402 369.887 650.482 370.72C648.838 370.902 647.641 369.963 646.276 369.174C644.747 368.694 644.183 368.312 643.077 367.151C642.745 366.043 642.441 365.543 643.136 364.474C644.766 361.967 648.259 361.649 650.926 361.152Z"/>
	<path fill="white" d="M932.466 294.712C935.365 294.48 938.337 294.558 941.248 294.526C941.301 296.729 941.877 300.186 940.893 302.117L930.9 302.199C930.878 300.277 930.615 297.916 931.112 296.061C931.373 295.087 931.641 295.193 932.466 294.712Z"/>
	<path fill="white" d="M245.152 304.401C246.193 305.267 249.845 311.936 251.668 314.057C250.829 318.639 249.859 323.214 249.72 327.882L249.416 328.507C248.294 328.776 248.126 328.952 246.978 328.602C244.899 324.85 245.52 309.641 245.152 304.401Z"/>
	<path fill="#EBD8F0" d="M923.772 178.857C925.691 180.747 929.064 202.805 929.935 207.132L926.929 203.05C925.47 200.241 922.632 193.237 919.869 191.701C919.078 191.262 918.001 191.241 917.133 190.771C920.012 186.95 921.95 183.268 923.772 178.857Z"/>
	<path fill="white" d="M523.464 228.862C527.817 231.517 534.247 231.234 537.359 235.724C538.982 238.066 538.703 239.905 538.17 242.585L535.993 243.222C532.943 242.628 530.062 241.357 527.843 239.144C524.679 235.99 523.441 233.304 523.464 228.862Z"/>
	<path fill="white" d="M112.381 183.304C114.056 183.408 115.506 183.329 116.89 184.41L117.481 185.456L116.625 189.479C115.144 201.348 113.68 213.342 111.055 225.027L109.917 224.574C111.616 220.172 111.356 196.66 111.757 189.892L112.381 183.304Z"/>
	<path fill="white" d="M275.157 321.529C281.137 323.198 288.262 322.426 294.071 324.579C295.486 325.104 296.191 325.658 296.778 327.035L296.087 328.256C294.45 329.389 292.788 329.051 290.875 328.954L269.465 328.808C271.044 326.044 272.683 323.573 275.157 321.529Z"/>
	<path fill="#EBD8F0" d="M528.327 253.996L528.841 254.659C529.512 261.205 533.742 266.555 533.104 273.403C532.402 280.931 524.943 281.069 519.565 283.864C517.789 284.788 516.195 286.335 514.691 287.647C519.991 279.913 523.218 275.907 525.192 266.426C526.07 262.21 526.667 257.995 528.327 253.996Z"/>
	<path fill="white" d="M838.917 311.865C843.331 311.953 847.665 312.117 852.058 312.612C852.124 316.049 853.121 325.682 851.432 328.099C847.055 328.058 842.717 327.971 838.359 328.457C838.865 322.964 838.826 317.38 838.917 311.865Z"/>
	<path fill="white" d="M955.637 312.279Q962.396 311.954 969.162 311.978L969.555 328.271L964.625 328.393C960.727 328.443 955.046 329.183 951.372 327.831C954.173 322.965 950.986 316.137 953.222 312.884C953.618 312.308 954.962 312.366 955.637 312.279Z"/>
	<path fill="white" d="M256.923 275.887C259.925 275.768 264.274 275.883 266.924 277.36C271.257 279.775 271.723 285.35 273.213 289.564C274.198 292.351 275.602 294.885 276.331 297.773L275.886 298.452C274.499 298.864 274.167 298.966 272.768 298.67C270.189 295.999 270.725 291.244 270.121 287.797C269.891 286.482 269.769 285.934 268.648 285.202C268.122 285.421 267.83 285.447 267.478 285.854C265.183 288.51 266.955 295.95 267.376 299.302C264.94 299.224 260.386 299.431 258.716 297.295C257.04 295.149 258.371 289.638 258.637 287.031C258.582 285.433 258.243 284.179 257.628 282.727L256.922 282.743C256.509 283.182 256.414 283.239 256.086 283.852C254.581 286.669 252.117 296.409 252.775 299.374C255.566 303.984 262.303 301.962 266.633 303.451C261.531 304.77 255.106 304.403 249.761 304.746C250.805 297.582 251.987 280.689 256.923 275.887Z"/>
	<path fill="white" d="M623.34 276.314L623.674 276.558C624.181 279.859 624.31 282.643 626.971 284.937C627.083 285.033 627.197 285.128 627.31 285.223C621.464 283.295 585.904 284.183 577.025 284.138L571.068 284.056C572.204 281.861 573.002 279.791 573.724 277.441C590.271 277.361 606.799 276.678 623.34 276.314Z"/>
	<path fill="white" d="M934.564 213.249C935.161 213.675 934.904 213.443 935.437 214.047C936.393 215.132 937.062 215.952 938.405 216.59L940.164 215.032L939.866 214.658L941.217 214.331C941.789 219.155 941.037 224.943 941.032 229.861Q940.973 250.45 941.218 271.039L940.902 271.562C938.671 272.349 935.621 271.978 933.254 271.973C933.367 260.996 934.464 250.07 934.699 239.103C934.884 230.485 934.187 221.868 934.564 213.249Z"/>
	<path fill="white" d="M529.737 284.584C530.851 284.432 531.571 284.317 532.644 284.698C531.345 287.764 529.794 291.067 529.052 294.31C527.02 303.197 528.016 312.886 526.095 321.936C522.854 321.679 519.624 321.555 516.375 321.463L512.563 321.151C512.225 313.852 511.969 298.107 515.905 291.926C518.995 287.073 524.466 285.684 529.737 284.584Z"/>
	<path fill="white" d="M241.66 202.362L242.467 202.837C244.17 215.475 249.299 227.016 251.285 239.54C253.011 250.427 251.176 261.716 255.405 272.011Q252.528 274.365 249.779 276.867C249.304 280.027 248.837 283.148 248.054 286.25C247.402 288.573 247.269 291.164 246.966 293.56C244.707 275.995 244.739 258.059 243.517 240.39C242.665 228.07 240.861 216.076 238.805 203.916C239.376 202.8 240.506 202.758 241.66 202.362Z"/>
	<path fill="white" d="M299.737 277.014C303.142 277.511 306.179 277.169 309.566 276.928C312.479 276.719 314.128 277.185 316.303 279.159C319.553 282.108 323.607 287.338 323.603 291.845C323.599 297.157 318.948 302.777 315.418 306.398C314.436 300.484 314.827 294.496 314.048 288.568C313.731 286.153 313.385 283.682 311.376 282.133C310.216 282.331 310.318 282.429 309.524 283.194C309.277 289.099 310.366 295.24 311.161 301.09L310.926 302.216C310.004 302.984 309.599 303.417 308.305 303.367C307.136 303.322 306.055 302.321 305.277 301.531C299.261 295.418 305.216 283.68 302 279.877C296.022 280.023 300.577 296.599 296.881 300.257L295.691 300.214C294.926 299.67 294.094 299.002 293.245 298.604C292.145 298.088 290.992 298.727 289.954 299.148L289.466 299.351L288.951 298.782C288.713 296.833 288.793 294.644 289.306 292.746C290.709 287.56 295.189 279.845 299.737 277.014Z"/>
	<path fill="white" d="M634.276 293.132C634.771 294.855 633.585 299.88 633.526 301.978L560.876 302.112C561.113 300.54 565.636 296.098 566.876 294.487C575.91 294.346 630.123 294.817 634.276 293.132Z"/>
	<path fill="white" d="M214.451 316.771C223.425 317.744 233.34 316.483 242.438 316.589C242.257 320.791 242.144 324.882 242.487 329.077L221.25 329.177C216.526 329.192 197.064 330.097 194.258 328.644Q193.506 322.739 192.62 316.853C199.877 316.942 207.207 317.227 214.451 316.771Z"/>
	<path fill="white" d="M109.917 224.574L111.055 225.027C111.051 225.195 111.035 225.364 111.041 225.533C111.103 227.077 111.63 228.192 112.694 229.279C113.821 229.565 114.824 229.837 115.888 230.32C116.792 232.116 120.926 311.142 121.095 319.904C121.163 323.371 120.851 326.808 120.505 330.253C117.57 330.31 114.638 330.199 111.705 330.119L111.297 329.525L110.978 329.767C113.01 298.288 112.274 267.303 111.408 235.793C111.303 231.96 109.985 228.363 109.917 224.574Z"/>
	<path fill="white" d="M564.277 284.235L564.889 284.325C564.252 286.78 563.662 289.639 562.422 291.859C557.823 300.096 547.733 298.128 546.222 299.596C543.084 302.646 542.54 323.906 542.716 329.081C539.116 329.347 535.483 329.395 531.875 329.523C531.528 329.495 531.099 329.28 530.769 329.16C530.579 328.388 530.464 327.723 530.46 326.922C530.425 319.294 531.713 298.533 534.015 291.938C534.983 289.167 536.336 287.333 538.395 285.272C546.843 283.724 555.701 284.797 564.277 284.235Z"/>
	<path fill="white" d="M788.809 224.427C789.971 226.283 791.309 229.284 793.6 229.822C794.459 230.024 794.24 229.924 795.169 229.505L796.61 227.448C797.62 230.409 795.638 249.291 795.532 254.182C795.004 278.636 795.116 303.231 795.244 327.694L785.159 327.831C785.012 305.238 786.881 282.165 788.157 259.593C788.647 250.922 789.971 241.59 789.548 232.961C789.417 230.291 788.965 228.615 787.663 226.272L788.809 224.427Z"/>
	<path fill="white" d="M124.298 299.229Q125.383 299.389 126.451 299.64C137.237 302.093 142.38 308.979 151.077 314.504C155.787 317.497 161.265 318.917 165.672 322.488C168.211 324.547 169.874 327.112 171.564 329.852C156.133 330.623 140.423 330.167 124.958 330.302C125.083 319.928 124.37 309.597 124.298 299.229Z"/>
	<path fill="#EBD8F0" d="M915.688 192.09C916.457 199.164 926.697 208.637 928.998 216.091C930.655 221.456 930.549 230.511 930.489 236.219C922.349 232.811 915.994 226.153 908.281 221.875C897.898 215.577 888.448 212.901 876.659 210.486Q878.011 210.282 879.355 210.029Q880.699 209.776 882.033 209.474Q883.367 209.172 884.689 208.822Q886.011 208.472 887.32 208.074Q888.628 207.676 889.922 207.231Q891.215 206.786 892.491 206.294Q893.767 205.802 895.025 205.265Q896.282 204.727 897.519 204.144Q898.757 203.561 899.972 202.933Q901.187 202.305 902.378 201.634Q903.57 200.963 904.736 200.248Q905.903 199.534 907.042 198.778Q908.182 198.022 909.293 197.225Q910.405 196.428 911.487 195.591Q912.568 194.754 913.619 193.879Q914.67 193.003 915.688 192.09Z"/>
	<path fill="white" d="M370.426 161.368C375.647 168.47 380.652 190.771 382.187 199.927C383.391 207.104 382.798 214.784 386.817 221.068C388.632 223.906 387.866 236.518 388.152 240.4Q389.371 255.011 390.879 269.595C391.648 276.707 392.849 284.003 392.633 291.166C389.724 291.327 381.641 287.285 378.569 286.08C377.872 267.363 378.348 248.336 378.39 229.591C378.408 221.83 378.79 213.902 378.229 206.167C377.268 192.904 373.266 174.64 370.426 161.368Z"/>
	<path fill="#EBD8F0" d="M535.541 248.275C535.785 248.391 536.026 248.514 536.273 248.624C537.56 249.198 538.9 249.145 540.202 248.63C545.893 246.379 548.477 235.935 555.314 238.595C559.62 240.271 562.996 245.369 564.714 249.448C566.358 253.354 570.115 273.454 568.907 276.576C568.303 278.136 567.269 279.128 565.732 279.719C562.293 281.041 556.842 280.778 553.23 280.191L552.725 279.743C552.868 279.695 553.012 279.648 553.155 279.598C554.831 279.011 555.84 278.473 556.674 276.798C558.701 272.726 555.724 265.613 554.998 261.386C556.809 257.615 560.381 256.371 562.412 253.051L561.953 251.868C560.288 251.243 559.459 251.532 557.851 252.254C554.91 253.574 551.793 255.327 550.755 258.59C549.122 263.725 552.566 270.354 553.46 275.462C546.93 278.143 543.373 280.385 536.055 280.803C538.054 271.019 537.921 263.832 532.264 255.143C531.955 254.669 531.605 254.224 531.263 253.774C531.965 251.786 534.146 249.86 535.541 248.275Z"/>
	<path fill="white" d="M856.487 312.288C867.682 311.672 878.802 312.384 889.997 312.32C909.501 312.209 929.019 311.76 948.526 312.306C948.473 315.151 947.662 324.514 948.826 326.62C948.943 326.832 949.077 327.034 949.203 327.242L948.876 328.105C917.476 328.689 885.996 328.11 854.586 328.079C854.657 327.877 854.733 327.677 854.799 327.473C854.902 327.157 854.994 326.836 855.094 326.518C856.454 322.193 856.106 316.837 856.487 312.288Z"/>
	<path fill="white" d="M578.632 310.71C586.311 309.222 604.37 310.737 612.981 311.045C619.74 311.286 626.542 311.17 633.305 311.174C635.104 316.53 634.558 322.865 635.121 328.503L604.717 328.45L546.924 328.339Q547.371 319.9 547.623 311.452C557.884 310.278 568.337 311.576 578.632 310.71Z"/>
	<path fill="white" d="M643.621 236.32C645.36 236.597 647.058 237.931 648.645 238.651C652.839 240.553 657.967 241.503 662.556 241.558C666.601 241.607 670.776 239.076 674.746 239.337C675.936 239.416 676.844 240.263 677.508 241.202C681.783 247.237 680.452 273.063 679.648 281.159C679.027 287.413 677.916 293.69 677.084 299.926C675.729 293.896 673.528 287.156 673.19 281.004C672.823 274.331 674.921 267.191 675.586 260.536L674.835 259.713C673.315 259.542 672.978 259.276 671.681 260.168C670.58 262.633 669.897 275.862 669.792 279.227C669.695 279.246 669.598 279.302 669.501 279.284C665.203 278.482 660.698 279.686 656.248 279.564C651.681 279.437 647.342 278.246 642.859 277.513C641.875 273.281 641.19 269.162 641.543 264.806C641.912 260.253 644.815 253.322 643.764 249.128C642.524 248.584 642.594 248.566 641.318 249.004C637.768 252.973 637.489 261.746 635.865 266.9C634.925 269.884 631.944 281.368 629.439 282.667C627.021 278.786 627.842 272.38 628.707 268.045C630.74 257.857 634.645 242.308 643.621 236.32Z"/>
	<path fill="white" d="M221.951 219.948C229.692 220.812 233.74 227.155 238.537 232.488C240.32 246.11 240.454 259.985 240.987 273.699C241.242 280.262 241.274 286.936 242.313 293.432Q230.094 293.458 217.875 293.614L217.019 293.411C216.167 291.879 217.423 281.715 217.146 278.821C215.973 266.568 208.047 254.007 198.818 246.239C209.428 239.744 215.59 230.279 221.951 219.948Z"/>
	<path fill="white" d="M360.15 288.594C377.917 286.552 391.075 298.838 407.159 302.998C414.466 304.888 422.274 303.886 429.47 306.161C439.464 309.322 449.945 319.916 454.717 329.045C433.827 329.641 412.791 329.149 391.888 329.182Q346.725 329.555 301.563 329.044C302.277 327.135 302.959 325.417 304.05 323.691L304.694 323.611C305.478 324.604 306.027 325.358 307.138 326.008C308.339 325.533 308.523 324.848 309.21 323.802C309.023 321.821 308.301 320.016 307.654 318.148C322.92 317.226 325.1 310.247 334.986 301.255C342.268 294.632 350.578 290.672 360.15 288.594Z"/>
	<path fill="white" d="M167.392 244.055C173.26 243.715 178.881 247.094 184.619 248.232C187.678 248.838 190.954 248.606 194.057 248.543C198.817 252.293 202.96 256.236 206.115 261.469C212.151 271.482 213.835 282.384 210.972 293.657Q197.785 293.672 184.599 293.458L184.689 301.576C191.756 301.58 240.002 300.264 242.002 301.901C242.012 303.271 241.909 303.945 241.251 305.151C239.104 306.297 201.678 305.461 196.375 305.43L184.721 305.479C184.77 309.107 184.63 312.565 185.936 316.008C191.388 319.209 187.476 324.168 189.888 328.297C190.028 328.536 190.185 328.764 190.333 328.997L190.013 329.413C186.098 330.137 181.664 329.698 177.677 329.655C175.46 327.061 173.528 324.231 171.277 321.656C166.154 315.797 159.675 314.334 153.431 310.383C142.859 303.694 137.445 295.73 123.499 294.848C123.629 288.186 123.196 281.505 122.93 274.846C153.449 272.989 147.628 250.184 167.392 244.055Z"/>
	<path fill="#EBD8F0" d="M943.2 76.1573C943.504 76.1088 943.813 76.0999 944.119 76.077C952.331 75.4656 960.108 75.9301 966.576 81.7702C969.581 84.4834 971.722 87.8786 973.198 91.6263C977.428 102.37 978.152 114.002 981.56 124.955C983.941 132.602 989.056 140.884 989.366 148.927C989.505 152.54 988.174 156.369 986.856 159.698C981.984 172 953.19 227.944 945.558 236.018C945.509 230.088 944.184 222.762 945.436 217.024C946.605 211.661 950.132 206.529 952.198 201.416C955.532 193.162 969.865 153.209 968.266 146.809C967.936 145.488 967.523 144.934 966.42 144.194L965.416 144.675C960.251 151.495 959.473 162.904 957.013 170.997C954.882 178.011 952.283 184.92 949.989 191.889C947.976 197.601 946.13 203.73 942.988 208.928Q943.219 181.33 943.877 153.738C944.202 143.356 945.649 128.329 944.305 118.249C944.096 116.685 943.99 116.294 942.741 115.321C941.355 115.078 940.814 115.239 939.547 115.83C936.282 119.031 935.226 170.396 935.231 177.811C935.237 188.166 936.301 198.699 935.741 209.024L935.7 209.726C934.14 203.434 933.587 196.884 932.178 190.537C930.617 183.508 927.455 175.809 926.846 168.695C926.593 165.735 927.648 162.427 927.747 159.421C927.845 156.474 926.655 152.711 925.831 149.886C921.023 133.416 911.092 125.658 899.523 114.106C902.906 109.815 905.647 104.891 908.911 100.463C918.009 88.1209 927.575 78.5495 943.2 76.1573Z"/>
	<path fill="white" d="M334.602 207.332C345.057 209.767 362.752 214.154 370.321 221.852C372.317 223.883 373.703 226.253 374.133 229.089C374.851 233.815 374.035 239.31 374.072 244.136C374.176 257.644 374.518 271.151 374.339 284.66C369.843 284.035 365.48 283.473 360.938 283.886C344.862 285.349 332.677 295.07 322.761 307.074C323.98 303.68 325.927 300.701 327.256 297.381C328.943 293.162 328.909 290.333 327.191 286.136C324.728 281.765 321.495 276.785 317.033 274.279C315.038 273.159 312.881 272.636 311.188 271.032C310.613 268.494 312.382 266.523 312.573 264.015C312.702 262.316 312.019 260.867 310.939 259.621C309.411 257.859 307.413 256.743 305.061 256.616Q304.577 256.593 304.093 256.619Q303.61 256.645 303.131 256.72Q302.653 256.795 302.184 256.918Q301.715 257.041 301.262 257.211Q300.808 257.38 300.374 257.595Q299.939 257.81 299.529 258.067Q299.119 258.324 298.736 258.622Q298.354 258.919 298.004 259.254C296.402 260.812 295.42 263.027 295.486 265.276C295.578 268.395 297.484 270.374 299.607 272.421C298.396 273.044 297.121 273.661 295.988 274.418C288.851 279.193 285.321 288.58 283.825 296.626C284.359 297.142 285.058 297.717 285.473 298.327C286.213 299.417 286.083 299.782 285.907 301.008L285.031 301.496C278.24 299.706 277.492 283.095 273.948 277.534C271.644 273.918 268.414 272.182 264.306 271.361C267.221 267.75 269.696 263.982 269.184 259.107C268.942 256.799 267.936 254.679 266.081 253.242C263.009 250.862 259.663 251.158 256.054 251.671C255.458 240.728 257.092 230.627 263.296 221.342C268.176 214.038 274.878 209.288 283.537 207.607C290.42 206.879 295.747 210.989 301.263 214.435C307.153 218.115 313.612 220.908 320.699 219.078C326.832 217.494 331.394 212.537 334.602 207.332Z"/>
	<path fill="white" d="M853.85 213.695C860.709 212.907 868.325 213.545 875.119 214.678C900.441 218.901 909.298 230.322 930.137 241.052C929.713 251.528 928.898 261.998 928.402 272.474C915.694 272.927 902.913 272.611 890.194 272.641L849.829 273.042C847.296 273.046 844.723 274.157 842.234 274.096C840.038 274.043 839.263 272.442 836.763 273.305C836.104 275.998 836.504 278.99 836.62 281.745C845.078 282.035 914.313 282.609 916.168 281.969C916.712 281.781 917.243 281.581 917.803 281.44C920.385 280.791 924.679 281.353 926.886 282.905C927.763 283.521 928.21 284.028 928.395 285.095C928.189 285.417 928.066 285.647 927.77 285.918C926.651 286.945 923.919 287.199 922.477 287.298C909.19 288.206 894.906 287.167 881.518 286.999C865.816 286.801 850.178 287.288 834.482 287.349C834.431 289.656 833.857 293.779 835.101 295.668L836.117 295.779C845.24 294.502 855.431 295.708 864.698 295.805C884.919 296.015 905.345 296.314 925.535 295.179C925.585 297.625 925.52 300.078 925.496 302.525C909.529 303.732 893.254 303.843 877.254 303.396C872.578 303.265 867.923 302.769 863.249 302.665C849.729 302.366 836.164 302.537 822.639 302.46C822.377 305.61 822.403 308.786 822.354 311.945C826.571 311.739 830.765 311.688 834.987 311.702C834.847 317.209 834.867 322.559 835.663 328.023C823.528 328.058 811.376 327.795 799.241 327.662C800.194 305.317 799.619 282.82 799.684 260.457C817.455 256.088 818.26 238.303 828.109 225.986C834.812 217.601 843.545 214.794 853.85 213.695Z"/>
	<path fill="#EBD8F0" d="M237.144 71.1735C257.341 72.2308 255.396 82.3117 269.533 89.4047C276.271 92.7851 283.838 93.2358 290.732 96.0323C291.915 96.5118 293.053 97.0572 294.146 97.7181C310.742 107.762 297.027 123.767 303.134 137.498C308.35 149.227 323.124 156.208 329.558 171.31C333.452 180.452 334.948 193.743 331.024 203.048C328.318 209.466 323.444 212.832 317.201 215.276C307.436 214.42 303.622 209.867 295.518 205.661C289.46 202.515 283.061 201.919 276.563 204.169C264.819 208.235 258.48 219.449 253.177 229.856C251.188 222.534 248.919 215.309 249.008 207.646C249.179 192.787 253.952 176.635 258.698 162.549C260.276 157.863 262.482 153.224 263.683 148.435C264.025 147.073 264.322 145.564 263.792 144.215C263.496 143.461 263.032 143.517 262.339 143.255C261.713 143.438 261.618 143.426 260.996 143.82C256.661 146.561 249.452 174.612 248.145 180.323C246.683 186.715 245.937 193.245 244.287 199.595L243.295 187.123C242.345 175.836 242.383 164.05 243.112 152.747C243.482 147.024 247.026 131.57 245.128 127.083C244.035 126.044 243.482 125.756 241.999 125.482C241.07 125.884 240.666 125.951 240.195 126.916C237.31 132.824 234.916 157.711 234.563 165.26C234.372 169.347 234.778 173.472 234.543 177.527C234.425 179.563 233.312 183.177 234.049 185.033C234.427 185.985 234.389 185.355 234.143 186.506C233.63 185.608 233.713 185.952 233.567 185.069C232.383 177.923 229.914 170.975 228.366 163.888C227.28 158.918 227.095 153.322 225.396 148.544C224.847 147.001 224.306 146.349 222.853 145.63C221.657 145.805 221.19 146.324 220.323 147.126C218.99 151.209 227.173 180.453 228.965 186.35C230.71 192.092 233.16 197.611 234.581 203.454C236.349 210.725 237.199 218.378 238.008 225.81C233.656 220.478 230.495 218.069 223.833 215.984C230.952 185.122 204.634 180.789 195.847 157.033C192.253 147.318 196.536 136.675 194.279 126.702C192.621 119.374 187.227 112.627 184.96 104.902C189.448 101.547 195.013 99.7434 199.524 96.3112C213.425 85.7354 218.066 74.301 237.144 71.1735Z"/>
	<path fill="#EBD8F0" d="M337.88 46.6084C341.551 46.2401 345.19 46.1705 348.855 46.6396C365.166 48.7274 368.49 58.4868 377.353 69.7101C388.627 83.9853 404.875 79.6288 420.54 81.5811C428.043 82.5162 434.507 85.6388 439.208 91.7191C442.695 96.2306 445.367 102.09 446.693 107.626C449.008 117.294 448.314 127.744 449.552 137.625C451.546 153.547 459.018 171.603 456.63 187.591C453.943 205.578 436.387 205.948 422.494 209.137C413.849 211.123 403.999 214.313 396.722 219.496L396.099 219.944C400.829 202.8 408.213 186.008 416.522 170.311C418.938 165.747 429.533 148.622 429.78 145.376C429.194 143.992 428.653 143.229 427.207 142.665C426.142 142.25 425.088 141.952 424.009 142.478C417.432 145.685 398.226 182.751 394.493 191.305C391.762 197.566 389.693 203.998 387.623 210.497C387.412 206.224 387.302 201.92 387.859 197.672C389.188 191.89 389.618 186.09 390.478 180.243C391.634 172.39 397.415 145.711 394.871 139.218C394.46 138.168 394.459 138.178 393.37 137.752C392.865 137.955 392.458 138.091 391.999 138.416C390.996 139.127 390.341 140.445 389.98 141.596C389.163 144.202 388.993 147.109 388.525 149.801C386.485 161.533 385.395 173.372 383.633 185.151C381.804 176.056 378.216 167.571 375.072 158.882C372.634 152.143 370.409 144.574 366.965 138.266C366.059 136.607 365.131 134.857 363.22 134.283L361.717 135.131C360.861 136.347 360.647 137.274 360.778 138.734C361.241 143.881 362.646 149.204 363.666 154.283C367.806 174.894 374.889 198.116 374.479 219.034C365.66 208.768 349.34 207.459 337.344 202.918L336.759 202.691C337.272 198.558 338.102 194.525 338.213 190.345C338.681 172.746 330.212 159.127 317.69 147.31C313.959 143.789 309.488 140.461 307.782 135.419C302.631 120.202 313.987 114.968 301.833 96.5107C306.486 84.2344 312.236 71.5117 319.222 60.3971C323.928 52.9103 329.122 48.6063 337.88 46.6084Z"/>
	<path fill="#EBD8F0" d="M107.467 267.792C101.004 267.397 95.7162 266.027 91.3277 260.871C83.4896 251.662 82.0085 239.171 72.4675 230.442C56.71 216.026 33.2211 223.639 25.5561 204.798C24.0819 201.174 23.3396 197.33 23.8003 193.421C25.1457 182.005 36.3163 174.714 40.912 164.639C47.7827 149.576 33.6495 140.295 50.7274 127.43C57.2505 122.516 65.6282 120.029 71.6792 114.601C76.7854 110.02 78.1909 102.744 84.3525 99.0608C93.052 93.8606 103.585 97.0009 112.86 94.2284C124.764 90.67 129.432 80.7128 143.443 78.428C147.26 77.8055 151.287 77.6032 155.129 78.1438C161.734 79.0731 167.036 82.3888 170.975 87.7453C178.228 97.6076 177.981 104.468 182.486 114.412C184.725 119.357 188.445 123.368 189.345 128.905C191.661 143.144 184.731 150.454 193.97 165.048C197.012 169.853 200.641 174.321 204.47 178.517C212.865 187.718 222.331 195.783 220.118 209.702C218.357 220.778 207.421 234.745 198.351 241C194.348 243.761 190 244.463 185.279 243.425C175.41 241.254 169.375 236.292 159.006 242.557C155.396 244.739 152.939 247.824 150.512 251.181C141.999 262.953 137.974 268.993 122.508 270.535C122.481 262.595 122.343 254.721 121.871 246.793C121.552 241.437 120.587 235.504 121.053 230.183C121.688 222.941 124.974 215.555 127.203 208.666C129.612 201.222 131.845 193.696 134.192 186.229C136.051 180.311 141.436 166.583 138.536 161.284C137.397 160.521 137.175 160.365 135.822 160.276C132.282 162.176 129.386 174.586 128.205 178.492C125.788 186.489 123.34 194.619 121.503 202.768C120.496 207.23 120.145 212.079 118.871 216.433C118.631 217.254 118.156 217.904 117.67 218.593C117.492 217.591 117.711 217.197 117.971 216.211C119.487 210.47 119.582 204.032 120.4 198.145C121.671 189.012 129.659 143.217 125.938 136.854C125.495 136.097 125.074 136.081 124.317 135.742C123.222 136.091 122.713 136.065 122.133 137.136C119.845 141.366 117.531 178.428 117.481 185.456L116.89 184.41C115.506 183.329 114.056 183.408 112.381 183.304C113.006 175.914 117.577 141.911 113.636 137.456C112.761 136.467 112.004 136.192 110.736 136.063C109.079 137.064 108.49 138.119 108.05 139.999C106.086 148.399 107.226 162.804 107.185 171.851C107.152 179.268 106.501 186.732 106.932 194.138C104.845 188.482 103.417 176.777 99.7988 172.844C98.6219 172.365 98.5777 172.419 97.3421 172.761C96.0353 174.287 95.941 175.801 96.053 177.724C96.3269 182.43 97.7987 187.404 98.661 192.048C100.329 201.033 101.855 210.049 103.606 219.018C104.527 223.735 105.748 228.419 106.514 233.162C108.302 244.247 107.553 256.566 107.467 267.792Z"/>
	<path fill="#EBD8F0" d="M783.893 254.082C779.384 253.113 774.862 252.177 770.368 251.146C751.113 246.726 756.299 233.999 747.215 219.741Q746.902 219.255 746.574 218.779Q746.245 218.304 745.9 217.84Q745.555 217.376 745.195 216.923Q744.835 216.471 744.459 216.032Q744.084 215.592 743.694 215.165Q743.304 214.738 742.9 214.325Q742.496 213.912 742.078 213.513Q741.66 213.113 741.228 212.728Q740.797 212.343 740.353 211.973Q739.909 211.603 739.453 211.248Q738.996 210.893 738.528 210.554Q738.06 210.215 737.581 209.891Q737.101 209.568 736.611 209.262Q736.121 208.955 735.621 208.665Q735.121 208.375 734.611 208.102Q734.102 207.829 733.583 207.573Q733.065 207.318 732.538 207.08Q732.011 206.842 731.476 206.622Q730.941 206.402 730.4 206.201Q729.858 205.999 729.309 205.816Q728.761 205.633 728.207 205.469Q727.653 205.304 727.093 205.158Q726.534 205.013 725.97 204.886Q725.406 204.76 724.838 204.652Q724.27 204.545 723.698 204.457Q723.127 204.369 722.553 204.3Q721.979 204.231 721.403 204.182Q720.827 204.133 720.249 204.103Q719.672 204.073 719.094 204.063Q718.516 204.053 717.938 204.062Q717.36 204.072 716.783 204.101Q716.205 204.129 715.629 204.178C709.394 204.675 702.689 206.646 696.488 205.102C691.991 203.983 688.879 199.792 686.629 196.004C671.122 169.9 699.879 155.995 707.751 134.543C711.725 123.712 709.595 112.116 712.456 101.093C713.768 96.0402 716.417 91.3348 719.606 87.2308C725.07 80.1987 732.356 74.4802 738.962 68.5415C747.608 60.7685 755.551 52.5169 765.65 46.5579C796.07 28.6083 795.634 55.0522 811.447 56.0516C825.556 56.9433 838.444 47.7387 854.39 51.9387C861.16 53.7221 869.452 57.97 873.644 63.7063C882.113 75.2947 874.323 90.1106 880.682 102.122C884.541 109.412 891.659 113.919 897.743 119.159C904.844 125.276 911.683 132.174 916.434 140.319C922.107 150.042 924.405 161.21 921.471 172.236C919.5 179.644 914.859 186.036 909.063 190.947C883.142 212.909 854.756 201.026 833.238 214.897C815.757 226.166 817.439 246.391 799.971 256.372C800.085 246.837 800.013 235.884 802.015 226.602C803.024 221.926 805.657 217.339 807.167 212.763C811.241 200.418 819.553 171.41 819.162 158.867C819.098 156.824 818.839 154.378 817.27 152.928L816.218 153.098C814.664 154.629 813.737 156.325 812.976 158.369C810.929 163.869 810.391 170.225 809.017 175.948C806.83 185.052 803.815 194.026 801.448 203.099C800.102 208.26 799.366 213.586 797.934 218.705L797.625 218.547C796.437 212.936 797.403 205.99 797.267 200.166C796.888 183.982 796.564 167.77 795.743 151.602C795.525 147.308 795.772 142.847 795.342 138.596C795.101 136.211 794.766 134.362 792.835 132.79C791.608 132.501 791.134 132.097 789.989 132.752C789.335 134.308 788.975 135.596 788.866 137.286C788.431 144.052 789.406 151.311 789.716 158.124C790.067 165.811 790.164 173.506 790.516 181.195C791.041 192.653 791.825 204.156 791.139 215.624Q785.31 190.59 781.806 165.126C780.85 157.641 779.035 124.98 776.515 121.292C775.849 120.317 775.693 120.218 774.602 119.999C774.059 120.469 773.592 120.896 773.282 121.562C770.88 126.719 771.9 135.275 771.98 140.888C772.207 156.756 772.39 173.149 776.249 188.64C779.266 200.75 784.333 212.775 788.809 224.427L787.663 226.272Q780.153 214.599 772.945 202.737C770.396 198.631 767.985 194.096 764.867 190.414C763.62 188.941 761.808 187.073 759.82 186.715C758.853 186.541 759.248 186.53 758.319 187.107C757.854 189.361 758.738 191.46 759.714 193.465C763.051 200.318 768.325 206.83 772.654 213.115Q779.661 223.371 785.736 234.205C785.569 240.791 784.498 247.507 783.893 254.082Z"/>
	<path fill="#111418" d="M788.698 347.682C797.28 346.723 805.492 348.226 813.282 351.84C830.698 359.921 838.42 374.43 844.821 391.664C851.51 392.876 858.889 393.863 864.622 397.773C871.708 402.604 875.963 409.039 881.86 415.015C886.525 419.743 892.434 424.067 895.851 429.866C897.83 433.225 898.44 436.763 899.156 440.534C906.745 446.924 912.739 453.914 917.967 462.346C922.937 470.36 927.849 478.787 932.099 487.214C938.932 500.765 952.528 532.285 954.802 546.863C955.275 549.898 955.231 552.916 954.457 555.9C952.77 562.406 948.431 565.816 942.925 569.048C947.89 573.959 951.957 579.698 954.414 586.263C959.52 599.9 957.83 612.504 951.911 625.498C956.675 626.975 961.335 628.614 965.686 631.09Q966.594 631.596 967.475 632.147Q968.356 632.698 969.208 633.293Q970.06 633.888 970.88 634.526Q971.701 635.163 972.489 635.841Q973.276 636.519 974.028 637.236Q974.78 637.954 975.495 638.708Q976.21 639.462 976.886 640.252Q977.561 641.041 978.196 641.864Q978.831 642.687 979.424 643.54Q980.016 644.394 980.564 645.277Q981.113 646.16 981.616 647.069Q982.119 647.978 982.575 648.912Q983.032 649.846 983.44 650.801Q983.849 651.757 984.208 652.732Q984.568 653.707 984.878 654.699Q985.188 655.691 985.447 656.697C986.943 662.368 986.912 668.814 983.769 673.948C981.95 676.921 978.761 679.827 975.348 680.773C967.597 682.92 930.747 678.148 921.231 676.94C917.659 676.486 911.415 674.913 908.042 675.898C903.977 677.085 898.798 676.063 894.587 675.702Q879.039 674.357 863.55 672.44C856.463 671.522 848.841 669.717 841.705 669.865C833.4 670.037 824.206 673.09 816.167 675.152C814.27 678.238 812.846 681.75 811.217 684.998Q805.923 695.343 800.963 705.852C796.172 715.905 790.954 725.677 786.523 735.911C789.76 737.667 797.404 739.642 798.858 740.742C799.55 742.063 799.933 743.184 800.049 744.683C800.363 748.751 799.966 753.097 799.972 757.198C799.992 771.768 800.429 786.68 791.643 799.097C788.423 803.646 783.904 806.676 780.458 810.963C780.35 811.097 780.246 811.235 780.14 811.371C789.15 817.44 795.815 823.163 798.773 834.04C802.452 847.569 796.607 862.121 789.924 873.685C798.857 873.192 807.997 872.425 816.945 872.774C826.356 873.14 836.229 875.438 842.791 882.681Q843.299 883.242 843.778 883.828Q844.258 884.415 844.707 885.024Q845.157 885.633 845.575 886.264Q845.994 886.895 846.38 887.546Q846.767 888.197 847.12 888.867Q847.474 889.536 847.793 890.223Q848.113 890.909 848.397 891.611Q848.682 892.312 848.932 893.027Q849.181 893.742 849.395 894.469Q849.608 895.195 849.785 895.931Q849.962 896.667 850.102 897.412Q850.242 898.156 850.344 898.906Q850.447 899.656 850.512 900.41Q850.576 901.165 850.604 901.922Q850.631 902.678 850.62 903.435Q850.609 904.192 850.561 904.948C849.986 913.526 845.601 921.461 839.097 926.98C819.736 943.412 783.445 939.386 759.582 937.972C745.176 937.119 730.836 936.14 716.451 934.963C712.135 937.223 708.256 940.358 703.943 942.679C694.154 947.948 674.568 956.17 663.991 959.548C648.903 964.366 632.146 966.302 616.473 968.139C604.356 969.56 592.275 971.421 580.09 972.182C571.913 972.692 563.643 972.449 555.453 972.42C533.894 972.346 511.481 971.918 490.155 968.642C482.152 967.412 473.891 965.076 468.906 958.179C453.902 937.421 449.52 854.439 449.912 826.912Q450.106 814.267 451.183 801.666Q452.26 789.065 454.215 776.57C443.853 787.593 434.238 799.729 424.741 811.499C418.553 819.167 412.218 826.712 406.209 834.523C391.489 853.659 342.429 925.14 327.599 932.939C323.411 935.141 317.723 935.631 313.089 936.076C305.641 936.79 298.379 935.864 290.954 936.109C280.63 936.451 253.749 940.665 244.962 937.88C241.67 936.836 238.29 938.105 235.262 937.196C233.533 936.677 232.644 935.862 231.705 934.365C231.727 933.291 231.981 932.595 232.598 931.706C234.869 928.434 238.966 925.724 242.046 923.235C246.013 920.026 250.258 916.335 254.932 914.203C260.801 911.525 288.587 908.977 296.879 907.98C300.628 907.53 305.288 907.823 308.871 906.837C317.9 904.353 343.091 851.631 348.836 840.904C353.817 831.603 359.208 822.497 364.469 813.352C371.328 801.427 378.741 789.903 386.096 778.287C390.142 771.898 393.855 765.323 398.196 759.122C383.435 764.333 369.415 771.213 354.431 775.944C345.879 778.644 330.282 781.766 321.205 782.709C317.656 783.077 314.061 782.966 310.52 783.424C298.152 785.025 285.87 787.527 273.326 787.583C269.622 787.6 264.605 786.241 262.291 783.071C260.43 780.521 261.123 773.147 261.547 770.061C251.358 769.279 240.945 770.35 230.721 770.312C208.942 770.23 160.34 768.396 142.931 756.539C139.934 754.497 138.766 751.41 138.24 747.924C137.088 740.286 138.191 731.688 138.656 723.957C142.014 668.12 167.688 604.196 201.223 559.703C194.978 557.306 189.437 554.505 186.699 547.957C183.662 540.692 185.184 531.716 188.12 524.655C196.881 503.583 215.035 500.574 233.536 492.774C252.799 484.652 254.553 464.883 261.619 447.672C270.231 426.695 283.308 408.147 305 399.29C322.009 392.345 341.073 393.239 357.825 400.413C369.888 405.579 378.208 414.232 383.005 426.478C391.132 447.227 386.443 467.08 378.604 486.974C375.951 493.707 372.668 500.899 371.659 508.104C369.166 525.924 375.589 538.483 367.711 556.667C385.582 561.329 398.285 573.868 406.43 590.078C407.757 592.719 409.816 598.61 412.182 600.152C413.096 600.749 415.065 599.982 416.003 599.626C422.558 597.137 428.496 592.972 435.129 590.41C440.436 588.36 445.777 588.005 451.135 586.48C447.015 583.42 437.116 586.11 430.759 578.384L430.351 577.879C428.72 560.686 433.873 529.617 437.438 512.062Q434.991 510.597 432.577 509.08C429.275 506.987 427.28 505.135 426.477 501.198C423.257 485.395 436.841 450.266 445.417 437.137C456.488 420.187 470.212 420.783 488.085 416.968C481.927 412.847 476.432 408.546 474.451 400.96C473.958 399.075 473.932 397.165 475.101 395.499C476.508 393.493 478.584 393.451 480.81 393.198Q480.866 390.406 481.123 387.625C482.067 377.563 487.378 368.215 495.183 361.849C501.903 356.366 509.84 353.788 518.502 354.697C526.6 355.546 534.612 361.293 539.609 367.553C545.511 374.946 549.152 385.218 548.124 394.639C549.555 395.805 551.11 397.048 552.165 398.581C553.414 400.398 554.055 402.925 553.548 405.094C552.333 410.292 547.423 413.226 543.164 415.715C542.075 417.386 542.329 420.261 542.241 422.231C556.479 423.36 574.368 428.199 584.028 439.367C592.682 449.372 594.424 459.143 593.407 471.952C598.152 469.723 602.348 466.474 607.194 464.322C620.408 458.453 638.957 458.437 652.858 461.54C656.517 462.357 662.584 466.643 665.602 466.488C665.667 465.437 665.538 464.524 665.403 463.488C666.32 461.996 667.666 460.729 668.946 459.539C670.685 457.922 673.222 456.094 675.736 456.303C690.039 457.495 706.008 468.682 715.108 479.264Q717.377 476.291 719.863 473.496C732.019 459.994 750.708 453.257 768.471 452.235C770.405 454.343 772.838 459.271 775.503 460.201C777.635 460.945 780.001 459.462 781.856 458.548C770.956 452.615 765.147 441.34 759.39 430.855C756.744 429.639 754.073 428.346 751.752 426.568C744.84 421.273 741.246 413.7 740.257 405.185C738.745 392.167 742.608 377.509 750.842 367.243C760.34 355.403 773.866 349.303 788.698 347.682Z"/>
	<path fill="white" d="M553.04 462.184C556.256 462.993 558.686 464.951 561.148 467.059C559.258 467.358 557.537 467.824 555.7 467.112C554.165 465.834 553.707 464 553.04 462.184Z"/>
	<path fill="white" d="M465.248 582.456C466.447 583.449 467.337 583.926 467.907 585.394C465.767 587.223 461.101 586.49 458.375 586.436C457.66 586.525 457.273 586.439 456.579 586.288C459.303 584.616 462.412 584.375 465.248 582.456Z"/>
	<path fill="white" d="M747.827 545.399C748.121 545.564 748.417 545.725 748.709 545.893C750.316 546.819 751.557 548.043 751.93 549.925C752.238 551.474 752.105 552.896 751.323 554.271C750.94 554.412 750.145 554.724 749.76 554.78C749.161 554.868 748.628 554.764 748.239 554.3C746.564 552.304 747.592 547.82 747.827 545.399Z"/>
	<path fill="white" d="M545.657 398.874C545.897 398.943 546.14 399.002 546.376 399.081C548.212 399.694 548.608 400.333 549.372 401.997C549.36 404.989 547.904 406.832 546.08 409.085C545.481 409.285 544.936 409.287 544.309 409.327L543.674 408.474C543.693 405.677 544.047 401.036 545.657 398.874Z"/>
	<path fill="white" d="M767.336 562.788C768.064 562.893 768.156 562.878 768.947 563.153C770.886 563.828 773.359 565.718 774.277 567.576C774.766 568.567 774.681 568.117 774.308 569.246L772.997 569.602C771.073 569.337 768.987 569.048 767.148 568.432C765.834 567.993 765.508 567.483 764.908 566.295C765.319 564.62 766.166 564.028 767.336 562.788Z"/>
	<path fill="white" d="M206.544 584.814C207.83 590.506 211.192 588.405 213.307 592.098C213.068 593.326 212.723 593.888 211.943 594.859L203.993 593.025C204.743 590.268 205.681 587.54 206.544 584.814Z"/>
	<path fill="white" d="M777.191 753.897C777.881 754.696 777.757 755.437 777.664 756.45C777.11 762.483 774.257 770.313 769.604 774.365L769.216 773.804C771.312 767.096 774.29 760.307 777.191 753.897Z"/>
	<path fill="white" d="M480.635 396.769C481.561 397.425 481.861 397.68 482.27 398.77C483.456 401.929 485.983 404.573 486.88 407.85C487.236 409.15 487.396 409.541 486.735 410.677Q485.647 410.14 484.658 409.439C482.188 407.663 479.09 403.366 479.034 400.229C479.004 398.578 479.709 398.003 480.635 396.769Z"/>
	<path fill="white" d="M758.229 556.303C758.813 556.215 758.603 556.17 759.27 556.544C760.288 557.115 760.909 557.821 761.197 558.973C761.635 560.723 761.611 563.239 760.699 564.812L759.864 564.253L760.302 564.8L760.606 564.761C758.997 564.268 757.61 564.063 755.925 564.023L755.386 564.014C755.24 564.005 755.092 564.01 754.947 563.987C753.224 563.714 752.269 562.58 751.256 561.298C751.171 560.597 750.922 560.171 751.396 559.569C752.359 558.343 754.065 557.728 755.552 557.466C756.36 557.324 756.895 557.198 757.592 556.742C757.808 556.6 758.017 556.449 758.229 556.303Z"/>
	<path fill="white" d="M286.438 916.703L287.37 916.541L287.825 916.866C283.639 918.975 271.429 920.604 266.085 921.919C257.576 924.012 249.914 927.565 242.138 931.543L240.982 931.789C241.93 929.397 246.494 926.788 248.623 925.356C256.233 920.24 277.063 917.867 286.438 916.703Z"/>
	<path fill="white" d="M357.304 521.401C359.013 523.37 359.154 529.312 359.186 531.947C359.275 539.156 358.45 550.576 353.134 555.985C354.952 549.703 355.896 542.543 355.278 536.027C354.931 532.361 354.099 528.199 354.592 524.54C354.784 523.111 356.247 522.249 357.304 521.401Z"/>
	<path fill="white" d="M675.282 461.43C676.616 461.479 677.833 461.69 679.109 462.077C689.64 465.276 697.949 470.111 706.262 477.239C707.865 478.613 710.048 480.145 711.068 482.014L709.837 481.588C698.373 473.603 686.066 469.125 672.767 465.286L673.413 464.862L672.396 465.165C671.756 464.923 672.037 465.139 671.662 464.394C672.475 463.037 673.988 462.281 675.282 461.43Z"/>
	<path fill="white" d="M930.273 650.874C931.27 650.903 934.475 650.824 935.073 651.55C937.363 654.332 937.201 665.372 936.699 668.945C936.474 670.551 936.245 672.375 934.889 673.417L927.566 672.874C929.751 665.61 930.875 658.462 930.273 650.874Z"/>
	<path fill="white" d="M544.882 460.499L545.978 460.665C547.676 462.93 548.72 465.595 549.867 468.166C544.99 469.925 539.899 470.978 535.06 472.905C530.629 474.668 526.458 477.419 522.358 479.842C521.257 480.346 520.964 480.646 519.725 480.541C519.899 479.91 519.907 479.763 520.28 479.111C524.461 471.807 537.04 463.313 544.882 460.499Z"/>
	<path fill="white" d="M464.31 459.861Q466.005 460.256 467.667 460.773C477.35 463.702 503.824 473.159 508.408 481.739L507.893 483.197C505.1 483.795 500.31 479.655 497.913 478.103C493.146 475.017 487.854 472.094 482.506 470.166C476.548 468.018 469.944 466.549 464.426 463.399C463.835 462.136 464.164 461.217 464.31 459.861Z"/>
	<path fill="white" d="M465.662 591.293L465.996 591.275L466.119 591.738C458.628 595.909 426.338 604.172 417.08 606.133L416.442 605.89C416.613 605.704 416.755 605.488 416.954 605.331C418.937 603.771 421.854 602.536 424.087 601.305C438.077 593.59 449.941 591.536 465.662 591.293Z"/>
	<path fill="white" d="M551.679 482.621C552.465 482.548 553.204 482.493 553.995 482.508C556.439 482.552 560.796 482.549 562.334 484.679C563.081 485.714 563.06 486.123 562.788 487.251C560.591 488.376 552.94 487.22 549.606 487.679C537.651 489.326 530.386 495.903 523.277 505.21C521.597 507.793 520.026 510.649 517.817 512.81L517.17 512.518L517.523 512.056L517.119 510.918C517.815 507.273 520.134 503.205 522.205 500.162C529.708 489.137 538.927 485.071 551.679 482.621Z"/>
	<path fill="white" d="M461.654 483.515C475.935 482.926 497.019 489.579 507.684 499.534C510.563 502.222 514.878 507.309 514.874 511.368C514.873 512.628 514.741 512.703 513.879 513.511C512.039 512.175 511.514 510.227 510.382 508.353C506.186 501.409 500.429 497.722 493.128 494.624C484.563 490.989 470.485 486.598 461.586 490.181L461.654 483.515Z"/>
	<path fill="white" d="M371.605 563.902C372.178 563.825 372.344 563.763 372.988 563.903C374.566 564.245 376.638 565.566 378.074 566.358C390.92 573.442 398.469 586.309 405.333 598.755C404.178 597.82 403.094 596.764 401.993 595.765C391.067 584.721 378.941 574.49 365.09 567.32L371.605 563.902Z"/>
	<path fill="white" d="M866.335 613.889C869.996 614.551 915.356 633.166 916.8 634.268Q914.973 634.777 913.152 635.311L910.258 636.785C903.701 634.865 866.718 619.97 864.918 616.811C865.047 615.272 865.39 615.059 866.335 613.889Z"/>
	<path fill="white" d="M806.319 681.558C806.264 681.868 806.242 682.186 806.156 682.489C804.635 687.812 796.382 701.325 793.439 707.396C783.426 728.056 773.918 748.692 764.725 769.724C763.639 772.208 762.432 776.207 760.752 778.179C760.492 778.485 759.152 778.954 758.725 779.161C758.629 778.591 758.568 778.452 758.673 777.798C759.414 773.17 766.448 758.995 768.791 753.45C775.338 737.95 781.107 721.84 788.49 706.731C791.108 701.375 794.322 695.954 797.507 690.913C799.921 687.092 802.811 684.34 806.319 681.558Z"/>
	<path fill="white" d="M918.082 639.055C918.976 638.977 920.158 638.78 921.032 638.968C922.014 639.179 922.704 639.709 923.295 640.49C927.648 646.233 924.133 664.727 923.195 671.863L919.622 671.563C916.524 671.389 913.417 671.051 910.324 670.79C911.685 662.474 912.264 648.861 915.132 641.525C915.748 639.95 916.664 639.733 918.082 639.055Z"/>
	<path fill="white" d="M410.11 612.487C411.76 612.485 413.403 612.539 415.051 612.597C415.008 612.93 415.012 613.272 414.921 613.594C414.064 616.615 411.011 620.418 409.326 623.157C400.952 636.766 391.921 649.931 383.484 663.491C381.216 667.136 371.207 685.297 368.78 686.357L362.952 685.812C369.426 673.708 377.701 662.274 385.182 650.774C393.48 638.019 401.362 624.938 410.11 612.487Z"/>
	<path fill="white" d="M782.554 571.305C782.774 571.406 782.983 571.535 783.214 571.61C787.312 572.928 791.499 574.495 795.768 575.203C809.543 577.489 826.888 574.998 841.127 574.874C836.781 578.531 832.587 582.116 828.558 586.134C826.423 588.345 824.368 590.565 821.861 592.364C805.775 587.002 788.942 581.006 773.761 573.464C776.768 573.116 779.801 572.602 782.554 571.305Z"/>
	<path fill="white" d="M209.606 660.262C210.831 660.804 211.757 661.368 212.824 662.154C212.855 662.425 212.936 662.694 212.916 662.965C212.695 665.933 207.72 674.441 206.191 677.341C193.06 702.256 179.229 725.392 159.663 745.835C157.163 748.447 153.964 752.608 150.854 754.285C149.11 753.653 147.601 752.773 146.003 751.839C153.888 744.561 161.893 736.775 168.573 728.368C179.5 714.615 188.274 698.316 196.891 683.033C201.159 675.464 204.747 667.486 209.606 660.262Z"/>
	<path fill="white" d="M946.338 630.507C946.571 630.469 946.801 630.412 947.035 630.393C954.744 629.773 965.663 636.024 970.849 641.402C976.239 646.992 980.925 655.916 980.664 663.789C980.497 668.842 978.611 671.829 975.111 675.192L969.398 676.264C971.45 672.527 972.369 669.341 972.89 665.122C972.929 664.369 972.932 663.621 972.925 662.867C972.865 656.792 971.28 649.355 966.653 645.102C958.926 637.999 949.562 643.419 941.008 645.17C937.72 645.843 934.154 645.783 930.804 645.846C930.297 643.505 929.617 641.184 929.009 638.866C935.116 636.194 939.8 632.531 946.338 630.507Z"/>
	<path fill="white" d="M957.395 646.039C960.058 646.473 961.68 647.672 963.329 649.797C966.92 654.426 968.157 660.311 967.387 666.058C966.975 669.14 965.974 672.517 963.326 674.417C960.31 676.582 955.355 675.176 951.955 674.75L941.602 673.537C943.173 666.073 942.321 658.27 941.328 650.787C946.843 649.682 952.042 647.715 957.395 646.039Z"/>
	<path fill="white" d="M301.397 510.502C306.952 516.512 312.517 522.463 319.43 526.919C315.52 530.533 310.684 535.255 308.087 539.91C306.407 542.92 305.257 546.236 303.252 549.047L302.433 549.113L301.532 547.729C295.576 537.095 289.541 528.912 280.446 520.72C288.713 518.529 295.254 516.775 301.397 510.502Z"/>
	<path fill="white" d="M529.842 567.157C536.403 566.915 543.771 569.209 550.096 570.762Q552.154 577.691 555.021 584.325C551.411 586.542 547.97 587.625 543.886 588.533C534.746 589.873 526.223 588.531 518.364 583.581C517.881 579.816 517.572 576.104 517.418 572.312C521.021 568.53 524.89 567.93 529.842 567.157Z"/>
	<path fill="white" d="M306.038 737.389C312.143 741.38 318.889 749.317 321.11 756.311C322.316 760.111 322.495 764.304 320.586 767.911C317.27 774.177 309.371 777.367 302.924 779.278C298.182 780.215 293.49 780.852 288.691 781.377C299.948 765.217 303.409 757.008 306.038 737.389Z"/>
	<path fill="white" d="M489.762 565.087C495.473 564.899 503.828 566.51 508.388 570.055C510.446 571.654 512.081 573.926 512.368 576.571C512.617 578.873 511.84 581.12 510.387 582.899C506.402 587.777 499.426 588.575 493.589 589.312C487.846 590.01 477.775 589.886 472.983 586.175C470.664 584.38 471.041 580.44 470.806 577.695C471.411 576.393 471.982 575.031 472.747 573.813C476.364 568.056 483.592 566.412 489.762 565.087Z"/>
	<path fill="white" d="M409.662 679.647L410.251 679.922L409.995 680.727C403.421 686.889 396.926 693.354 390.054 699.176C379.053 708.496 367.514 717.137 356.082 725.91C347.077 732.819 338.179 740.401 327.863 745.271C329.339 749.292 331.411 753.042 332.259 757.285C333.236 762.168 333.069 768.362 330.128 772.595C327.205 776.804 322.864 777.557 318.203 778.489C324.077 773.051 326.728 769.276 327.477 761.124C325.385 746.293 315.743 738.167 304.978 728.831C310.592 729.6 315.266 731.659 319.024 735.868C320.117 737.092 321.429 738.845 322.787 739.738C324.061 740.575 324.792 740.487 326.162 739.984C331.007 738.205 336.293 733.46 340.446 730.357C353.827 720.36 367.022 709.806 379.925 699.19C386.756 693.57 393.653 686.451 401.316 682.071C404.018 680.526 406.644 680.073 409.662 679.647Z"/>
	<path fill="white" d="M293.13 725.033C294.502 725.078 296.211 725.079 297.371 725.915C299.443 727.408 300.383 730.587 300.672 732.987C302.13 745.107 295.47 762.988 287.99 772.442C284.044 777.429 280.185 781.168 273.622 781.929C272.602 781.951 271.541 781.926 270.533 781.739C269.325 781.514 268.441 780.804 267.775 779.799C265.651 776.588 266.504 771.955 267.297 768.44C270.996 752.053 278.394 734.369 293.13 725.033Z"/>
	<path fill="white" d="M673.247 470.894C685.705 474.495 702.218 479.2 711.134 489.197C716.072 494.734 720.249 501.443 724.704 507.401C732.943 518.422 741.537 529.362 750.155 540.095C742.509 537.06 735.305 533.226 727.516 530.367C723.59 528.926 715.753 528.001 712.851 525.775C709.665 523.332 704.532 510.131 701.804 505.899C693.569 493.121 683.837 481.758 673.247 470.894Z"/>
	<path fill="white" d="M661.051 784.739C664.576 784.854 668.175 784.445 671.717 784.411C686.574 784.269 702.169 785.045 715.74 791.677C707.92 799.857 695.167 802.96 684.426 804.93C670.162 809.09 655.194 813.555 640.517 815.841C642.357 806.231 643.035 796.378 644.407 786.683C649.974 786.283 655.514 785.437 661.051 784.739Z"/>
	<path fill="white" d="M540.793 426.382C543.212 426.619 545.63 426.999 548.029 427.386C561.286 429.527 574.138 434.111 582.202 445.463C589.299 455.452 588.916 464.984 587.022 476.503C580.045 482.768 573.73 489.276 568.376 496.998C568.755 489.254 570.06 481.536 570.581 473.791C570.592 472.084 570.858 469.577 570.312 467.965C568.109 461.453 554.029 456.581 547.987 453.187C536.302 459.883 527.865 462.208 518.698 473.208L518.085 449.562C520.856 448.874 523.406 448.165 525.95 446.809C534.446 442.28 538.154 435.346 540.793 426.382Z"/>
	<path fill="white" d="M345.077 860.844C351.193 863.085 362.249 872.523 367.549 876.861C364.659 881.551 361.032 885.956 357.75 890.383C350.214 900.546 342.613 910.618 333.953 919.872C329.996 924.101 325.806 927.833 320.144 929.575C310.496 932.544 300.072 929.854 290.201 930.284C280.542 930.706 270.983 932.346 261.305 932.716C258.085 932.982 254.818 932.961 251.587 933.029C261.322 927.63 278.37 924.267 289.542 922.395C293.769 921.686 298.154 922.135 302.226 920.58C303.264 919.494 303.23 919.478 303.349 917.973C302.701 916.604 302.557 916.336 301.33 915.469C297.148 914.825 292.352 916.213 288.252 917.022C294.834 913.986 300.587 912.492 307.893 913.703C323.341 906.848 337.135 875.824 345.077 860.844Z"/>
	<path fill="white" d="M467.043 597.609L467.317 598.189C462.417 606.345 454.983 613.534 449.377 621.355C439.307 635.402 430.374 650.219 420.779 664.582C418.915 667.372 417.017 669.973 414.162 671.84C408.148 675.772 387.555 679.778 379.642 681.336L379.219 680.94C381.236 675.774 390.445 662.956 393.984 657.436L423.652 610.528C438.101 606.425 452.949 602.825 467.043 597.609Z"/>
	<path fill="white" d="M513.179 381.074C519.147 380.528 526.153 381.719 531.591 384.281C535.053 385.912 538.133 388.336 539.381 392.079C540.711 396.069 538.019 418.758 536.761 424.449C536.153 427.198 535.292 429.892 533.967 432.385C530.523 438.861 525.197 442.36 518.361 444.448C513.646 444.596 509.925 444.256 505.687 441.832C498.922 437.963 495.205 431.079 493.291 423.778C490.809 414.316 489.441 401.243 494.727 392.593C499.177 385.31 505.334 383.019 513.179 381.074Z"/>
	<path fill="#111418" d="M523.436 404.873C526.033 404.876 529.342 404.911 531.715 406.038C533.006 406.651 533.289 407.186 533.72 408.49L533.078 409.712L527.826 410.95C526.75 410.217 525.382 409.439 524.465 408.521C523.336 407.391 523.487 406.343 523.436 404.873Z"/>
	<path fill="#111418" d="M503.916 405.511C504.115 405.517 504.315 405.511 504.514 405.528C506.326 405.689 508.678 406.133 509.927 407.524L509.799 408.606C508.534 409.898 506.821 410.121 505.13 410.558C504.183 410.848 503.176 411.211 502.197 411.355C500.863 411.551 500.261 411.07 499.226 410.328C498.943 409.179 498.832 408.729 499.552 407.648C500.465 406.279 502.433 405.922 503.916 405.511Z"/>
	<path fill="#111418" d="M503.813 392.598C506.059 392.569 508.834 392.445 510.802 393.647C511.861 394.294 512.265 394.895 512.469 396.074L511.553 396.983C509.525 397.771 507.926 397.377 505.845 397.027C503.697 397.132 501.712 398.264 499.569 398.278C498.759 398.283 498.652 397.89 498.118 397.357C497.839 395.993 497.729 395.922 498.357 394.703C500.114 393.552 501.792 393.12 503.813 392.598Z"/>
	<path fill="#111418" d="M525.684 392.427C528.975 392.04 532.929 392.707 535.888 394.22C537.398 394.991 537.922 395.78 538.431 397.356C538.138 398.445 538.095 399.251 537.298 400.081L536.371 399.555C531.655 396.33 528.059 398.466 523.73 396.538C522.973 396.2 523.088 395.936 522.854 395.225C523.332 393.837 524.535 393.228 525.684 392.427Z"/>
	<path fill="#111418" d="M507.525 427.685C508.579 427.939 509.768 428.229 510.69 428.814C512.203 429.774 512.707 432.418 513.227 434.057C515.996 432.538 519.236 429.692 522.543 430.352C523.519 431.309 523.521 431.391 523.751 432.747C521.224 434.655 518.739 436.455 515.487 436.711C513.268 436.886 511.364 436.518 509.717 434.922C507.761 433.025 507.456 430.247 507.525 427.685Z"/>
	<path fill="#111418" d="M515.194 395.245C516.656 395.357 517.917 395.464 519.311 395.977C520.418 402.955 521.337 415.843 519.665 422.664C518.833 422.726 518.041 422.65 517.209 422.593C516.329 421.92 515.92 421.708 515.571 420.61C513.879 415.288 516.275 402.593 515.272 395.727C515.248 395.566 515.22 395.406 515.194 395.245Z"/>
	<path fill="white" d="M218.776 592.814C227.231 596.379 235.649 597.915 244.644 599.389C248.797 600.07 254.105 600.388 257.922 602.066C259.178 602.618 259.55 603.07 260.097 604.291C259.943 604.784 259.915 605.335 259.635 605.769C258.869 606.957 236.41 616.758 232.706 619.307C228.67 622.085 224.702 626.239 221.618 630.052C220.693 631.196 220.051 632.796 220.309 634.274C220.459 635.13 220.931 635.248 221.568 635.752C222.002 635.744 222.456 635.857 222.871 635.728C225.375 634.95 229.33 629.007 231.545 626.998Q234.672 624.149 238.289 621.956C244.196 618.39 250.606 615.69 256.858 612.807C269.812 606.832 282.6 601.147 296.26 596.952L303.969 594.921C296.971 605.047 289.079 615.117 280.427 623.859C261.671 623.867 244.938 632.279 231.793 645.357C228.302 648.83 225.577 653.394 221.934 656.593C220.895 657.506 219.084 657.993 217.716 657.799C215.147 657.434 213.156 655.045 211.858 652.994Q211.178 651.902 210.646 650.73Q210.114 649.559 209.739 648.328Q209.364 647.098 209.152 645.829Q208.939 644.56 208.894 643.274C208.78 640.075 209.603 636.671 210.106 633.503C212.295 619.73 215.956 606.442 218.776 592.814Z"/>
	<path fill="white" d="M786.103 743.197C787.041 743.253 787.786 743.395 788.693 743.608L789.221 744.712C788.022 755.975 789.102 769.687 784.697 780.235C783.096 784.068 779.277 786.879 777.641 790.83C777.696 792.1 777.783 792.675 778.514 793.725C779.722 793.978 779.95 794 781.092 793.335C782.777 792.353 784.289 790.42 785.487 788.888C795.307 776.332 791.587 760.014 794.743 745.601C794.786 745.404 794.835 745.208 794.881 745.012C795.438 755.001 795.274 774.483 792.665 783.903C791.6 787.746 789.861 791.255 787.586 794.522C783.886 799.837 778.453 804.628 774.172 809.58C768.494 808.071 762.28 808.183 756.47 808.615C738.336 809.963 722.967 815.688 707.25 824.545C704.918 825.974 702.586 827.169 700.103 828.312C699.587 820.806 698.354 814.857 693.358 808.943C708.086 804.533 719.93 800.398 727.774 786.389C730.78 781.022 733.548 775.57 737.371 770.712C740.879 766.256 745.721 763.015 749.811 759.12C752.786 756.286 755.196 752.861 758.52 750.42L759.254 750.656C759.958 752.132 760.477 753.423 760.475 755.085C760.468 762.186 754.501 765.094 750.166 769.579C747.601 772.234 743.161 777.474 743.624 781.397C743.778 782.706 744.473 783.577 745.498 784.341C748.198 786.353 752.966 785.844 756.02 785.197C777.531 780.641 781.253 773.109 783.651 752.49C784.006 749.429 784.058 746.18 785.844 743.558C785.928 743.436 786.017 743.317 786.103 743.197Z"/>
	<path fill="white" d="M483.767 422.159C484.828 421.963 485.93 421.959 487.007 421.898C489.976 423.801 491.727 433.237 493.92 436.739C497.915 443.118 504.712 447.397 511.943 449.144C513.125 457.94 513.67 466.411 513.613 475.276L510.713 477.927C500.051 467.293 484.389 460.726 470.095 456.415C468.012 455.786 464.326 454.797 462.382 456.278C459.396 458.553 457.72 475.854 456.915 480.411C456.886 480.667 456.861 480.923 456.83 481.178C456.434 484.352 456.375 487.337 456.436 490.536C453.321 490.742 449.976 490.664 447.149 492.137C441.805 494.922 440.304 501.598 438.639 506.902C435.385 504.723 432.683 502.775 430.525 499.399C430.196 482.929 441.39 449.745 451.08 436.212C458.554 425.774 471.988 424.111 483.767 422.159Z"/>
	<path fill="white" d="M790.821 395.216C792.218 395.067 793.072 395.263 794.202 396.151C796.556 397.999 798.568 401.615 800.272 404.102C808.728 416.439 815.633 430.928 825.734 441.974C830.379 447.053 836.252 450.757 842.049 454.363C838.797 457.989 835.542 461.747 831.533 464.567C826.966 467.781 820.499 470.223 814.88 468.973C810.576 468.016 804.129 464.07 801.797 460.316L802.084 459.448C804.582 458.606 807.595 457.881 809.848 456.515C811.109 455.751 811.792 455.046 812.076 453.606L811.293 452.72C809.917 452.252 808.865 452.105 807.412 452.321C804.953 452.686 802.471 453.744 800.041 454.348C796.489 455.232 792.841 455.764 789.229 456.348C785.373 454.646 782.044 452.361 778.968 449.494C769.603 440.765 757.971 421.84 755.177 409.283C754.694 407.114 754.756 404.657 754.692 402.436C763.925 399.572 780.906 396.459 790.821 395.216Z"/>
	<path fill="#111418" d="M783.911 419.231C784.63 419.619 785.179 419.927 785.729 420.536C787.732 422.751 788.538 426.433 788.47 429.333C788.127 429.324 787.659 429.324 787.331 429.251C785.965 428.947 784.989 427.839 784.354 426.633C783.093 424.233 783.216 421.762 783.911 419.231Z"/>
	<path fill="#111418" d="M762.273 410.347C763.749 410.373 764.377 410.787 765.604 411.519C766.079 412.347 766.504 412.844 766.053 413.842C765.337 415.425 763.782 415.8 762.329 416.479C760.935 416.61 760.185 416.668 758.841 416.149C758.395 415.557 758.029 415.416 758.183 414.621C758.605 412.444 760.515 411.388 762.273 410.347Z"/>
	<path fill="#111418" d="M786.373 433.413C787.642 433.415 788.583 433.671 789.642 434.323L789.769 434.95C788.37 438.586 784.483 440.037 781.18 441.587C780.953 441.578 780.724 441.59 780.499 441.56C779.319 441.404 778.594 441.149 777.923 440.151C778.899 437.164 783.733 435.106 786.373 433.413Z"/>
	<path fill="#111418" d="M789.956 402.622C791.223 402.483 792.199 402.496 793.456 402.716C794.577 403.642 794.531 403.533 794.67 404.979C794.386 405.554 794.266 406.245 793.819 406.705C792.442 408.123 785.945 408.365 783.663 409.591C783.513 409.671 783.365 409.756 783.217 409.839L782.429 410.564C781.191 410.295 781.072 410.081 780.17 409.162C779.869 407.906 779.734 407.599 780.515 406.441C782.192 403.954 787.22 403.221 789.956 402.622Z"/>
	<path fill="#111418" d="M770.272 423.108C770.994 423.293 771.668 423.568 772.364 423.831C774.226 426.068 774.813 429.642 774.773 432.485C774.742 434.703 774.609 436.381 772.949 437.932C771.502 437.669 771.335 436.948 770.47 435.835C768.64 433.868 766.211 430.422 766.214 427.697C767.1 426.942 767.499 426.703 768.664 426.59L769.643 428.053L770.156 427.381C769.95 425.856 770.048 424.627 770.272 423.108Z"/>
	<path fill="#111418" d="M794.163 437.899C794.402 437.894 794.644 437.851 794.881 437.884C796.218 438.066 796.701 438.291 797.51 439.266C797.346 440.392 797.043 441.046 796.288 441.882C793.04 445.477 788.023 446.49 783.438 446.846C782.249 446.189 781.423 445.764 780.684 444.564C781.638 442.187 790.873 439.963 793.584 438.269C793.778 438.148 793.97 438.022 794.163 437.899Z"/>
	<path fill="white" d="M514.536 586.405C519.34 588.485 523.479 590.996 528.642 592.472C536.726 594.782 545.933 594.199 553.702 590.96C555.251 590.315 556.549 589 558.065 588.422C560.815 587.374 571.227 594.568 574.057 596.176C573.138 597.782 571.989 600.401 570.436 601.425C566.494 604.025 552.753 604.044 547.467 605.065C543.124 605.903 538.641 607.637 534.577 609.342C516.267 617.021 498.633 628.407 483.585 641.281C475.046 648.924 466.078 657.089 459.242 666.319C453.766 656.936 449.491 651.275 440.187 645.361C444.559 638.37 448.894 631.285 453.881 624.71C461.453 614.726 471.191 604.925 476.76 593.741C490.603 594.089 503.082 595.916 514.536 586.405Z"/>
	<path fill="white" d="M369.225 438.873C370.729 441.215 371.599 444.416 372.664 447.037C377.078 457.898 378.919 462.339 377.156 474.466C375.009 472.707 369.871 469.961 366.997 470.633C365.737 470.928 365.016 471.601 364.426 472.727C363.841 473.842 364.006 474.872 364.345 475.999C366.572 477.855 369.434 477.446 372.088 478.188C373.395 478.554 373.747 479.141 374.363 480.272C374.057 486.759 367.966 499.218 364.562 504.734C358.682 514.263 347.202 526.527 336.024 529.177L331.166 527.611C321.297 523.649 311.674 515.26 305.119 507.029C314.884 494.362 313.644 476.4 313.473 461.24C319.639 461.003 325.823 460.639 331.932 459.739C346.102 457.651 360.595 450.581 369.225 438.873Z"/>
	<path fill="#111418" d="M364.426 483.153L368.244 483.679C369.403 484.541 369.553 484.774 370.144 486.099C370.006 488.827 368.285 490.605 366.546 492.548C365.303 492.502 364.218 492.309 363.292 491.385C362.309 490.404 361.916 489.034 362 487.679C362.122 485.695 362.978 484.424 364.426 483.153Z"/>
	<path fill="#111418" d="M334.089 477.026C336.067 476.918 338.089 476.559 339.764 477.861C340.764 478.638 341.321 479.591 341.357 480.845C341.421 483.126 340.2 484.528 338.73 486.119C337.689 486.556 336.546 487.074 335.393 486.688C334.216 486.294 333.4 485.425 332.963 484.288C331.997 481.771 332.877 479.244 334.089 477.026Z"/>
	<path fill="#111418" d="M331.766 507.502C335.188 507.286 340.628 508.132 343.545 510.053C344.986 511.002 345.831 511.966 346.194 513.619C344.072 516.026 338.22 511.269 334.848 512.236L335.164 513.336C336.4 514.142 337.436 514.758 338.896 515.07C339.726 515.248 340.294 515.372 341.096 515.722C341.965 516.101 341.666 515.876 342.007 516.865C341.888 517.011 341.784 517.171 341.65 517.303C340.779 518.152 339.525 518.397 338.346 518.465C335.772 518.614 333.273 517.775 331.447 515.921C329.97 514.421 328.986 512.324 329.027 510.215C329.612 508.765 330.509 508.298 331.766 507.502Z"/>
	<path fill="#111418" d="M333.983 463.58C337.618 463.302 343.088 464.139 345.865 466.67C346.932 467.642 347.312 468.569 347.423 469.999C346.992 470.715 346.935 471.116 346.116 471.461C343.859 472.412 341.77 471.418 339.631 470.595C335.787 469.425 327.883 470.618 325.222 468.164L325.424 467.318C327.833 465.146 330.9 464.331 333.983 463.58Z"/>
	<path fill="#111418" d="M357.736 478.105C358.416 478.416 358.133 478.245 358.792 478.739C359.363 479.168 359.329 478.984 359.366 479.73C359.58 484.111 356.288 488.221 355.422 492.417C354.68 496.017 354.896 499.844 353.958 503.402C353.571 504.871 352.971 506.274 351.936 507.406C350.129 509.382 348.09 509.869 345.508 509.967C344.898 508.554 345.794 508.049 346.615 506.98C352.666 499.096 348.085 501.335 348.744 496.21C349.124 493.255 355.402 480.123 357.736 478.105Z"/>
	<path fill="white" d="M652.185 536.858C653.523 537.096 655.197 537.264 656.38 537.96C657.884 538.845 659.607 540.538 660.084 542.224C658.831 546.269 652.064 545.623 648.817 548.634C644.911 552.256 644.025 558.389 643.817 563.477C643.699 566.36 644.15 568.431 646.14 570.554C647.363 571.026 647.377 571.124 648.601 570.706C650.999 567.594 648.945 562.912 649.48 559.197C649.801 556.969 650.99 554.797 651.95 552.782C654.414 551.304 657.014 550.193 659.642 549.044C659.643 553.148 658.02 561.937 660.334 565.263C660.805 565.941 661.185 565.767 661.933 565.853C668.636 563.149 669.938 554.762 674.36 549.633C677.863 545.571 678.799 548.528 681.537 543.619L682.08 543.531C682.41 544.814 682.491 545.653 683.554 546.533C684.09 546.447 684.625 546.355 685.153 546.23L685.708 546.093C686.875 546.909 687.743 547.539 689.183 547.797C690.538 547.155 690.609 546.804 691.387 545.492L691.908 545.369L691.282 546.81L691.753 547.698C694.445 547.99 696.454 546.874 698.781 545.713C694.947 552.198 692.315 559.793 688.831 566.549C681.499 580.763 673.048 593.415 663.447 606.179C654.688 618.192 644.726 627.565 629.971 630.852C625.397 627.387 621.19 623.556 616.438 620.294C604.26 611.935 589.89 607.177 575.712 603.449L580.181 597.862C586.169 598.531 591.661 598.851 597.63 597.843C618.499 594.318 630.876 580.816 642.557 564.262C642.772 559.423 642.447 554.702 643.491 549.927C644.745 544.194 647.216 540.001 652.185 536.858Z"/>
	<path fill="white" d="M810.805 878.233Q813.784 878.128 816.763 878.221C824.937 878.418 832.927 880.526 838.643 886.776C843.146 891.7 845.276 897.836 844.912 904.488C844.517 911.724 841.089 917.877 835.664 922.543C818.685 937.148 781.879 934.036 760.625 932.57C747.745 932.562 734.871 930.683 721.984 930.442C735.586 923.115 749.694 914.203 761.384 904.051C769.942 896.619 777.641 888.272 785.58 880.198Q798.146 878.623 810.805 878.233Z"/>
	<path fill="white" d="M763.766 458.196C764.626 458.087 765.366 458.129 766.227 458.178C784.028 479.67 801.805 501.323 819.221 523.125C808.95 525.93 798.721 529.617 788.878 533.667C783.667 535.811 778.158 538.807 772.755 540.295C771.184 540.728 769.358 540.585 767.74 540.535L766.786 542.968C765.888 541.537 765.846 540.93 764.331 540.086C762.529 540.019 758.718 539.893 757.311 541.067C757.132 541.216 756.97 541.384 756.799 541.543L716.35 486.81C717.692 484.509 719.172 482.251 720.868 480.193C731.672 467.082 747.083 459.896 763.766 458.196Z"/>
	<path fill="white" d="M330.576 556.979C336.721 559.651 343.152 561.567 349.223 564.47C364.243 571.652 379.263 581.942 391.494 593.18C396.673 597.939 401.285 603.257 406.45 608.047C397.364 621.629 388.569 635.408 379.609 649.074C373.013 659.135 365.983 669.093 360.139 679.613C359.416 680.563 359.84 680.113 358.843 680.94C355.885 679.34 349.725 671.53 346.408 668.627C326.098 650.849 311.103 638.039 286.435 626.398C291.479 619.853 296.992 613.681 301.937 607.042Q306.232 601.229 310.181 595.175Q314.13 589.121 317.719 582.847Q321.308 576.573 324.525 570.101Q327.742 563.628 330.576 556.979Z"/>
	<path fill="white" d="M699.42 658.004Q709.892 658.026 720.333 658.826C745.034 660.825 768.174 670.764 784.393 689.794C784.594 692.313 784.99 695.112 784.502 697.603C783.422 703.107 780.253 709.016 778.24 714.279C774.111 725.074 770.778 737.61 764.9 747.561L764.338 747.468C763.77 746.673 763.128 745.641 762.354 745.041C761.11 744.076 759.073 744.019 757.591 744.25C756.687 744.391 756.095 744.575 755.348 745.147C752.386 747.416 749.958 750.951 747.292 753.612C741.236 759.657 734.429 764.763 729.408 771.771C727.105 776.046 725.218 781.21 722.048 784.899C721.537 785.493 720.993 786.013 720.29 786.373C718.761 787.155 708.307 782.842 705.974 782.231C690.291 778.122 671.983 778.217 655.861 779.324C661.365 769.681 665.806 758.955 670.612 748.925C679.654 730.054 692.035 707.585 696.901 687.52C699.263 677.784 699.514 667.958 699.42 658.004Z"/>
	<path fill="white" d="M710.913 531.254C721.677 533.559 733.16 537.789 742.973 542.76C742.037 549.651 742.649 556.39 746.278 562.475C749.811 568.399 755.271 569.415 761.418 571.052C749.347 572.411 737.891 576.62 730.112 586.358C724.793 593.016 722.244 601.099 723.246 609.611C726.528 637.501 761.565 657.184 785.312 665.586C790.02 667.251 800.303 668.14 803.761 670.845C802.883 673.084 791.309 681.778 788.312 685.21Q783.081 679.639 777.154 674.815C753.874 656.243 722.836 650.171 693.652 653.334C693.231 658.248 693.59 663.336 693.487 668.279C693.386 673.127 692.82 677.925 692.255 682.736C692.232 682.862 692.212 682.989 692.187 683.115C691.035 688.942 688.99 694.681 686.739 700.164C679.294 718.299 670.075 735.951 661.642 753.651C658.088 761.11 654.858 770.497 651.002 777.421C650.4 778.502 649.483 779.846 648.32 780.385C647.14 780.932 646.644 780.695 645.557 780.245C645.206 772.288 647.526 763.469 648.434 755.527Q651.218 732.638 652.266 709.604C652.59 703.296 652.52 696.935 652.525 690.619C652.542 668.591 649.612 652.824 634.371 636.022C651.083 629.691 659.624 621.023 669.995 606.581C672.178 603.542 674.501 598.992 677.488 596.777C678.787 595.813 681.664 597.217 683.423 596.16C687.123 593.936 685.438 584.963 687.054 581.061C689.086 576.154 692.298 571.478 694.661 566.697C697.719 560.511 700.187 554.04 703.24 547.858C706.011 542.247 709.289 537.379 710.913 531.254Z"/>
	<path fill="white" d="M899.267 446.77C903.306 449.455 907.479 455.869 910.142 459.878Q915.863 468.441 920.975 477.381Q926.087 486.322 930.564 495.596Q935.041 504.87 938.862 514.434Q942.683 523.997 945.829 533.803C947.756 539.823 950.839 547.692 949.309 554.1C948.004 559.56 943.187 562.423 938.691 565.037C931.727 560.582 923.763 557.505 915.708 555.716C909.093 554.248 902.188 553.524 895.419 553.347C875.742 552.833 864.21 559.219 848.052 569.544C830.664 569.414 810.395 572.865 793.481 569.888C787.515 568.838 781.781 566.662 776.122 564.561C778.285 564.55 781.366 564.935 783.309 563.967C783.717 562.955 783.725 563.017 783.334 562C780.339 560.009 775.681 560.489 772.221 560.419C774.884 559.708 780.299 559.847 782.245 558.306C782.526 557.115 782.637 557.15 782.013 556.119C779.607 554.933 773.807 555.052 771.27 556.009C769.508 556.674 767.46 558.465 765.638 558.441L765.67 557.393C767.681 555.137 771.796 555.249 774.529 554.362C776.343 553.774 778.121 552.888 779.842 552.067L777.521 551.099C776.312 550.606 775.689 550.374 774.857 549.349C778.277 545.725 798.147 552.99 803.069 554.168C827.687 560.06 851.87 549.928 875.707 544.958C886.719 542.662 897.348 541.72 908.554 540.97L909.57 540.624C909.984 540.023 910.39 539.69 910.396 538.92C910.425 535.073 895.967 503.591 893.439 501.593C892.424 500.791 891.839 500.643 890.582 500.755L889.746 501.805C889.482 503.114 889.773 503.925 890.254 505.118C891.568 508.374 893.508 511.549 895.096 514.691C898.592 521.605 901.843 528.774 904.002 536.22C894.973 536.548 886.18 537.239 877.306 539.045C857.566 543.061 837.615 550.563 817.345 550.693C804.282 550.777 792.755 544.284 780.079 543.353C779.868 543.338 779.657 543.329 779.446 543.317C789.389 538.848 799.916 535.31 810.108 531.408C814.063 529.893 818.76 528.561 822.377 526.364C823.536 525.66 824.241 524.825 824.394 523.426C824.564 521.878 823.832 520.743 822.986 519.534C819.525 514.592 814.983 510.024 811.077 505.395C805.338 498.592 799.894 491.54 794.221 484.681C789.301 478.733 783.975 472.893 779.518 466.592L779.093 465.985C784.647 462.733 790.415 461.506 796.685 460.41C798.905 464.403 801.285 467.711 805.087 470.362C810.313 474.006 816.652 475.25 822.898 474.119C833.051 472.281 840.363 464.921 846.032 456.78C857.812 463.335 872.208 473.051 886.334 469.66C891.618 468.392 895.791 465.205 898.431 460.454C900.983 455.863 900.56 451.607 899.267 446.77Z"/>
	<path fill="white" d="M568.914 607.791C569.622 607.831 570.288 607.881 570.99 607.992C601.404 612.776 634.864 633.42 644.209 664.111C652.767 692.221 639.884 779.177 635.498 811.555C634.716 817.327 631.612 833.25 634.938 837.716C636.214 837.959 636.029 837.812 637.068 837.192C639.723 833.068 638.946 826.767 639.981 821.994L640.131 821.333C655.061 819.857 671.207 812.719 685.68 810.896C687.187 810.706 687.857 810.75 689.059 811.772C693.731 815.745 694.816 825.758 695.06 831.486C688.022 836.459 679.934 840.582 672.418 844.838Q657.551 853.261 642.935 862.113C634.564 867.145 622.002 877.539 613.417 880.715C607.075 883.061 598.164 881.17 592.175 878.42C586.666 875.89 581.891 872.033 579.588 866.271C575.315 855.575 579.308 799.663 580.306 785.461C580.769 778.881 582.838 761.045 580.723 755.323C579.687 754.487 579.761 754.55 578.428 754.672C577.518 755.301 577.02 755.659 576.454 756.652C575.201 758.853 575.235 776.22 575.041 779.652C574.031 797.592 568.967 851.676 573.69 867.44C576.596 877.139 583.608 880.172 591.828 884.531C581.754 900.734 571.196 916.621 560.967 932.723C554.561 942.808 547.244 957.461 539.001 965.684C537.912 966.77 536.357 966.587 534.918 966.616C521.364 965.456 490.89 965.455 480.083 960.208C475.266 957.869 472.504 954.325 470.249 949.57C466.713 942.114 465.373 933.58 463.852 925.525C460.925 910.013 459.279 894.546 457.828 878.837C455.789 856.763 454.469 834.889 455.889 812.731C456.776 798.894 458.481 784.734 460.438 771.011C461.312 764.883 462.806 758.669 463.293 752.509C463.432 750.756 463.332 749.379 462.733 747.73C461.624 746.88 461.714 746.83 460.339 746.98C456.484 750.22 456.096 762.4 455.412 767.262C438.06 786.959 420.731 806.646 404.622 827.389C393.131 842.188 382.761 857.902 371.01 872.48C362.999 867.578 355.062 861.374 347.668 855.565C358.243 834.402 370.432 813.737 382.855 793.609C387.67 785.809 392.83 778.243 397.58 770.391C404.698 758.627 411.169 746.512 418.232 734.728C431.841 712.022 448.164 687.657 465.436 667.589C486.554 643.053 517.903 618.312 549.536 610.214C555.8 608.611 562.481 608.282 568.914 607.791Z"/>
</svg>
